<?xml version="1.0" standalone="no"?>
<!DOCTYPE svg PUBLIC "-//W3C//DTD SVG 20010904//EN"
 "http://www.w3.org/TR/2001/REC-SVG-20010904/DTD/svg10.dtd">
<svg version="1.0" xmlns="http://www.w3.org/2000/svg"
 width="1024.000000pt" height="1024.000000pt" viewBox="0 0 1024.000000 1024.000000"
 preserveAspectRatio="xMidYMid meet">
<metadata>
Created by potrace 1.14, written by Peter Selinger 2001-2017
</metadata>
<g transform="translate(0.000000,1024.000000) scale(0.100000,-0.100000)"
fill="#000000" stroke="none">
<path d="M4977 10084 c-2 -2 -44 -6 -93 -9 -49 -3 -100 -7 -114 -10 -14 -2
-56 -7 -95 -11 -38 -4 -72 -9 -75 -9 -3 -1 -32 -5 -65 -9 -33 -5 -69 -10 -80
-12 -11 -3 -35 -7 -54 -10 -18 -3 -43 -8 -55 -10 -11 -2 -37 -7 -56 -10 -46
-8 -65 -12 -65 -14 0 -1 -13 -4 -65 -14 -14 -2 -25 -5 -25 -6 0 -2 -15 -5 -55
-13 -14 -3 -45 -11 -70 -18 -25 -7 -49 -14 -55 -15 -19 -2 -70 -17 -80 -23 -5
-3 -17 -7 -25 -9 -18 -3 -18 -3 -108 -31 -77 -24 -316 -112 -369 -136 -17 -8
-33 -15 -36 -15 -2 0 -31 -12 -63 -27 -33 -15 -61 -28 -64 -28 -15 -3 -66 -31
-72 -40 -4 -5 -8 -7 -8 -3 0 6 -151 -68 -245 -120 -49 -27 -301 -177 -310
-185 -5 -4 -39 -27 -75 -50 -36 -23 -72 -47 -80 -54 -8 -6 -53 -40 -100 -74
-75 -55 -265 -205 -296 -234 -6 -5 -49 -44 -95 -85 -91 -83 -276 -268 -354
-356 -27 -31 -59 -66 -70 -78 -26 -30 -51 -61 -99 -121 -22 -28 -44 -54 -51
-60 -6 -5 -20 -25 -30 -42 -11 -18 -26 -34 -35 -34 -8 -1 -132 -3 -275 -4
-143 -2 -260 -4 -260 -4 0 -1 -18 -4 -40 -6 -49 -5 -164 -40 -225 -68 -41 -19
-136 -76 -168 -102 -43 -35 -138 -134 -160 -169 -15 -22 -29 -43 -32 -46 -23
-22 -90 -180 -105 -248 -3 -12 -8 -32 -12 -44 -4 -13 -8 -171 -9 -353 -4 -394
5 -454 87 -618 59 -117 175 -253 266 -310 l40 -26 -13 -73 c-7 -40 -15 -86
-18 -102 -3 -16 -8 -50 -12 -75 -4 -25 -8 -55 -10 -66 -2 -11 -6 -47 -9 -80
-3 -33 -8 -78 -10 -100 -15 -124 -20 -239 -20 -500 0 -318 7 -426 40 -680 6
-48 43 -260 50 -295 4 -14 8 -36 11 -50 5 -24 21 -95 30 -133 2 -9 6 -25 8
-35 2 -9 12 -44 21 -77 9 -33 18 -67 19 -75 2 -8 5 -22 8 -30 3 -8 13 -42 23
-75 9 -33 21 -69 25 -80 12 -31 23 -59 25 -67 2 -5 3 -9 5 -10 1 -2 3 -12 4
-23 3 -18 82 -222 122 -312 8 -18 21 -50 30 -70 24 -56 168 -347 174 -353 3
-3 19 -30 34 -60 16 -30 34 -58 40 -62 6 -4 8 -8 4 -8 -8 0 88 -155 176 -284
34 -49 65 -97 71 -107 5 -11 13 -19 17 -19 5 0 8 -6 8 -13 0 -7 9 -19 20 -27
11 -8 20 -18 20 -23 0 -5 10 -21 22 -36 13 -16 37 -45 53 -66 58 -75 144 -176
245 -288 70 -77 249 -255 325 -322 37 -33 75 -67 84 -75 9 -8 41 -35 71 -60
30 -25 60 -49 67 -55 15 -13 27 -22 83 -65 25 -19 50 -38 55 -43 6 -4 35 -25
65 -47 30 -22 60 -44 66 -49 7 -5 15 -7 18 -4 3 4 6 2 6 -4 0 -10 55 -50 85
-62 6 -2 27 -17 48 -33 20 -16 37 -26 37 -21 0 4 4 3 8 -3 6 -9 121 -81 217
-134 55 -31 324 -169 331 -169 2 0 32 -13 67 -30 141 -66 513 -204 528 -196 4
3 9 1 11 -3 3 -8 82 -33 178 -57 8 -2 15 -4 15 -5 0 -2 12 -4 55 -13 14 -3 32
-8 40 -11 8 -3 26 -8 40 -10 14 -3 36 -8 50 -11 14 -3 36 -8 50 -11 13 -3 56
-12 95 -20 38 -8 86 -17 105 -20 19 -3 60 -9 90 -14 51 -9 71 -12 183 -25 23
-3 58 -7 77 -10 198 -26 881 -26 1019 0 9 1 45 6 81 10 82 8 89 9 275 41 102
17 118 20 158 30 12 3 31 7 42 8 11 1 29 5 40 9 11 3 34 9 50 12 46 9 49 10
60 16 6 4 18 5 28 4 9 -2 17 2 17 8 0 5 3 8 6 5 5 -6 128 24 164 40 8 3 20 7
25 7 6 1 17 5 25 8 8 3 53 18 100 33 47 14 90 29 95 33 6 3 15 6 20 8 21 4
152 55 192 73 24 11 45 20 47 20 6 0 118 50 213 96 40 19 74 33 76 32 2 -2 10
2 18 9 8 6 43 27 79 46 117 62 323 182 345 200 9 8 146 99 183 122 24 15 42
28 63 48 10 9 19 15 19 12 0 -3 8 3 18 13 10 9 29 24 42 32 12 8 37 26 54 40
17 14 39 32 50 40 259 205 484 427 750 740 11 14 37 45 56 70 19 25 38 47 42
48 5 2 8 8 8 14 0 5 6 15 13 22 65 67 407 599 407 635 0 6 5 11 12 11 6 0 8 3
5 7 -4 3 -3 11 3 18 9 11 80 150 99 195 6 14 15 32 19 40 25 44 107 237 153
361 41 111 123 367 135 421 9 39 12 53 14 53 1 0 3 9 5 20 2 11 11 50 20 85 9
36 18 76 21 90 2 14 7 36 11 50 3 14 8 32 10 40 2 8 5 32 7 52 3 20 7 45 10
55 3 10 8 36 11 58 2 22 7 51 10 65 4 23 11 76 20 160 2 19 7 53 9 75 14 109
21 264 21 500 0 298 -9 439 -41 673 -10 78 -15 106 -19 126 -6 29 -17 96 -21
126 -1 14 -3 25 -4 25 -1 0 -3 7 -5 15 -3 16 -27 128 -31 145 -1 6 -7 30 -13
55 -7 25 -14 54 -16 65 -2 11 -8 36 -14 55 -5 19 -17 62 -25 95 -9 33 -18 65
-20 70 -2 6 -4 13 -5 18 0 4 -7 22 -15 41 -8 19 -12 37 -8 40 3 3 0 6 -7 6 -7
0 -9 5 -6 10 4 6 3 16 -2 23 -5 7 -15 30 -22 52 -17 54 -69 193 -85 230 -8 17
-26 59 -41 95 -34 83 -236 489 -250 504 -5 6 -23 36 -39 66 -16 30 -31 57 -35
60 -10 8 -31 43 -37 63 -4 9 -11 17 -16 17 -5 0 -7 4 -4 9 3 5 -1 11 -9 15 -8
3 -15 10 -15 15 0 8 -44 79 -72 116 -61 81 -108 148 -108 155 0 4 -3 10 -8 12
-4 2 -23 23 -42 48 -19 25 -39 50 -45 56 -5 6 -21 26 -35 44 -27 35 -36 46
-110 131 -82 93 -106 120 -228 242 -110 111 -117 119 -118 160 -1 23 -5 110
-9 192 -3 83 -7 194 -8 247 -1 54 -4 98 -7 98 -3 0 -6 17 -7 38 -4 54 -5 62
-15 62 -4 0 -8 8 -8 18 0 39 -108 132 -173 149 -35 9 -220 10 -239 1 -12 -6
-18 -5 -18 2 0 6 -4 9 -8 6 -20 -12 -62 -14 -62 -3 0 8 -3 8 -8 2 -7 -10 -112
-16 -294 -19 -49 0 -88 -3 -88 -6 0 -10 -246 -4 -270 7 -14 6 -68 31 -120 55
-80 38 -149 66 -385 158 -44 17 -147 51 -165 55 -10 2 -27 8 -37 13 -10 6 -31
13 -48 16 -16 3 -55 13 -85 22 -30 9 -91 25 -135 36 -140 34 -155 38 -185 43
-14 2 -36 7 -50 10 -14 3 -43 8 -64 11 -22 3 -44 8 -49 11 -5 3 -28 7 -51 9
-22 2 -52 6 -65 8 -13 3 -49 8 -80 12 -31 3 -65 8 -76 10 -10 2 -49 6 -85 9
-36 3 -87 8 -115 11 -59 7 -672 14 -678 8z"/>
</g>
</svg>
