<svg width="197" height="197" viewBox="0 0 197 197" fill="none" xmlns="http://www.w3.org/2000/svg">
<path d="M112.334 9.65839C112.018 9.65839 111.717 9.65839 110.881 6.33209C108.06 5.79111 107.813 5.45944 107.73 5.34824C107.65 5.24205 107.615 5.04582 107.651 4.91769C107.702 4.73685 107.821 4.31822 111.041 3.01656C112.197 0 112.589 0 112.85 0C112.986 0 113.172 0.0961914 113.253 0.20508C113.459 0.482111 113.647 1.20239 113.932 2.35554C114.022 2.71991 114.13 3.15854 114.192 3.35131C114.361 3.42672 114.736 3.55985 115.045 3.67105C116.702 4.2632 117.129 4.46482 117.206 4.86113C117.235 5.00926 117.16 5.2255 117.048 5.3267C116.712 5.62835 115.111 6.22435 114.271 6.52332C112.91 9.62761 112.618 9.64377 112.36 9.65685C112.352 9.65839 112.343 9.65839 112.334 9.65839ZM108.82 4.97848C109.384 5.14085 110.411 5.37364 111.308 5.54024C111.473 5.57025 111.605 5.6953 111.646 5.85844C111.875 6.78727 112.176 7.84499 112.392 8.44791C112.703 7.88616 113.175 6.89038 113.559 6.01081C113.606 5.90115 113.697 5.8165 113.809 5.77726C114.575 5.50754 115.44 5.17587 115.978 4.93962C115.602 4.78033 115.088 4.59718 114.756 4.47829C113.808 4.13931 113.629 4.06543 113.508 3.90114C113.402 3.76031 113.335 3.52099 113.098 2.56138C113.01 2.20278 112.875 1.65372 112.754 1.24164C112.473 1.77762 112.081 2.68951 111.776 3.49598C111.733 3.60833 111.645 3.69798 111.534 3.74223C110.54 4.14046 109.412 4.64681 108.82 4.97848Z" fill="#241726"/>
<path d="M24.8651 156.583C24.5484 156.583 24.2479 156.583 23.4114 153.257C20.5911 152.716 20.3437 152.385 20.261 152.275C20.1813 152.167 20.1463 151.971 20.1833 151.843C20.2337 151.662 20.3514 151.243 23.5723 149.942C24.7281 146.925 25.1198 146.925 25.3811 146.925C25.5169 146.925 25.7027 147.021 25.7839 147.13C25.9909 147.408 26.1783 148.128 26.463 149.283C26.5527 149.646 26.6608 150.084 26.7227 150.276C26.892 150.352 27.2645 150.485 27.5735 150.595C29.2314 151.188 29.6597 151.39 29.7366 151.786C29.7659 151.934 29.6904 152.151 29.5785 152.252C29.2426 152.553 27.6416 153.149 26.8016 153.448C25.4407 156.553 25.1487 156.569 24.8913 156.582C24.8824 156.583 24.8736 156.583 24.8651 156.583ZM21.351 151.904C21.9147 152.066 22.942 152.299 23.8389 152.465C24.004 152.495 24.1363 152.62 24.1764 152.783C24.4057 153.712 24.7066 154.77 24.9224 155.373C25.2341 154.811 25.7062 153.815 26.0898 152.936C26.1367 152.826 26.2279 152.742 26.3403 152.702C27.1056 152.433 27.9709 152.101 28.5092 151.865C28.1314 151.705 27.6173 151.521 27.2841 151.403C26.3387 151.064 26.161 150.991 26.039 150.828C25.9328 150.686 25.8666 150.447 25.6304 149.487C25.5415 149.129 25.4061 148.578 25.2853 148.167C25.004 148.703 24.6119 149.615 24.3072 150.421C24.2645 150.533 24.1764 150.623 24.0652 150.667C23.0713 151.066 21.9424 151.573 21.351 151.904Z" fill="#241726"/>
<path d="M182.081 161.157C181.764 161.157 181.464 161.157 180.627 157.83C177.807 157.29 177.559 156.959 177.477 156.847C177.397 156.741 177.362 156.545 177.398 156.417C177.449 156.236 177.567 155.817 180.789 154.517C181.943 151.499 182.335 151.499 182.597 151.499C182.733 151.499 182.918 151.595 183 151.704C183.207 151.982 183.395 152.705 183.681 153.862C183.769 154.223 183.877 154.658 183.94 154.851C184.109 154.926 184.482 155.059 184.793 155.171C186.449 155.763 186.876 155.964 186.953 156.36C186.982 156.508 186.906 156.725 186.794 156.825C186.458 157.128 184.858 157.723 184.018 158.022C182.656 161.128 182.363 161.143 182.105 161.156C182.097 161.157 182.088 161.157 182.081 161.157ZM178.567 156.478C179.131 156.64 180.158 156.872 181.054 157.039C181.22 157.069 181.352 157.194 181.392 157.357C181.621 158.286 181.922 159.344 182.138 159.947C182.45 159.385 182.923 158.389 183.306 157.51C183.353 157.4 183.444 157.315 183.557 157.276C184.322 157.006 185.186 156.675 185.725 156.439C185.348 156.281 184.836 156.097 184.503 155.978C183.555 155.639 183.377 155.566 183.255 155.402C183.149 155.26 183.083 155.022 182.847 154.067C182.758 153.707 182.622 153.155 182.5 152.741C182.22 153.277 181.828 154.189 181.523 154.996C181.48 155.108 181.392 155.198 181.281 155.242C180.288 155.64 179.159 156.146 178.567 156.478Z" fill="#241726"/>
<path d="M20.5234 101.266H20.5207C20.2837 101.264 20.0925 101.072 20.094 100.835L20.1317 93.6185C20.1332 93.3822 20.3249 93.1922 20.5603 93.1918H20.563C20.8 93.1933 20.9913 93.3857 20.9897 93.6227L20.952 100.839C20.9505 101.075 20.7589 101.265 20.5234 101.266Z" fill="#241726"/>
<path d="M17.613 99.6924C17.4784 99.6924 17.3448 99.6289 17.2614 99.5092C17.1255 99.3149 17.1732 99.0479 17.3672 98.9121L23.3237 94.7536C23.5153 94.6193 23.7843 94.6643 23.9209 94.8594C24.0567 95.0537 24.009 95.3207 23.8151 95.4565L17.8585 99.6151C17.7839 99.667 17.6984 99.6924 17.613 99.6924Z" fill="#241726"/>
<path d="M22.8455 99.9917C22.7316 99.9917 22.6184 99.9467 22.5338 99.8578L18.0251 95.1002C17.8624 94.9286 17.8701 94.6566 18.0413 94.4938C18.2136 94.3303 18.4841 94.3395 18.6477 94.51L23.1563 99.2676C23.3191 99.4392 23.3114 99.7112 23.1402 99.874C23.0575 99.9533 22.9513 99.9917 22.8455 99.9917Z" fill="#241726"/>
<path d="M16.7969 97.5835C16.5615 97.5835 16.3706 97.3945 16.3679 97.1591C16.3652 96.9221 16.5553 96.7285 16.7923 96.7258L23.7331 96.655H23.7358C23.9728 96.655 24.164 96.8439 24.1664 97.0794C24.169 97.3164 23.979 97.51 23.742 97.5127L16.8012 97.5835H16.7969Z" fill="#241726"/>
<path d="M172.962 61.6699H172.959C172.722 61.6683 172.531 61.4759 172.532 61.2389L172.57 54.0227C172.572 53.7864 172.763 53.5963 172.999 53.5959H173.001C173.238 53.5975 173.43 53.7899 173.428 54.0269L173.39 61.2432C173.389 61.4794 173.197 61.6699 172.962 61.6699Z" fill="#241726"/>
<path d="M170.052 60.0966C169.917 60.0966 169.784 60.0331 169.7 59.9134C169.564 59.7191 169.612 59.4521 169.806 59.3163L175.762 55.1577C175.954 55.0234 176.223 55.0685 176.36 55.2635C176.495 55.4578 176.448 55.7249 176.254 55.8607L170.297 60.0192C170.222 60.0716 170.137 60.0966 170.052 60.0966Z" fill="#241726"/>
<path d="M175.284 60.3963C175.17 60.3963 175.057 60.3513 174.973 60.2624L170.464 55.5048C170.301 55.3332 170.309 55.0612 170.48 54.8984C170.652 54.7349 170.923 54.7441 171.086 54.9146L175.595 59.6722C175.758 59.8438 175.75 60.1158 175.579 60.2786C175.496 60.3578 175.39 60.3963 175.284 60.3963Z" fill="#241726"/>
<path d="M169.235 57.9876C169 57.9876 168.809 57.7987 168.806 57.5632C168.804 57.3262 168.994 57.1327 169.231 57.13L176.171 57.0592H176.174C176.411 57.0592 176.602 57.2481 176.605 57.4836C176.607 57.7206 176.417 57.9141 176.18 57.9168L169.24 57.9876H169.235Z" fill="#241726"/>
<path d="M166.877 183.589H166.874C166.637 183.588 166.446 183.395 166.448 183.158L166.485 175.942C166.487 175.706 166.679 175.516 166.914 175.515H166.917C167.154 175.517 167.345 175.709 167.343 175.946L167.306 183.163C167.304 183.399 167.113 183.589 166.877 183.589Z" fill="#241726"/>
<path d="M163.967 182.016C163.832 182.016 163.699 181.953 163.615 181.833C163.479 181.639 163.527 181.372 163.721 181.236L169.677 177.077C169.869 176.943 170.138 176.988 170.275 177.183C170.41 177.377 170.363 177.644 170.169 177.78L164.212 181.939C164.138 181.991 164.052 182.016 163.967 182.016Z" fill="#241726"/>
<path d="M169.2 182.316C169.086 182.316 168.973 182.271 168.888 182.182L164.379 177.424C164.216 177.253 164.224 176.981 164.395 176.818C164.568 176.654 164.838 176.664 165.002 176.834L169.51 181.592C169.673 181.763 169.665 182.035 169.494 182.198C169.411 182.277 169.305 182.316 169.2 182.316Z" fill="#241726"/>
<path d="M163.151 179.907C162.915 179.907 162.724 179.718 162.722 179.483C162.719 179.246 162.909 179.052 163.146 179.049L170.087 178.979H170.089C170.327 178.979 170.518 179.168 170.52 179.403C170.523 179.64 170.333 179.834 170.096 179.836L163.155 179.907H163.151Z" fill="#241726"/>
<path d="M138.857 42.4281C138.857 42.4281 138.007 36.0056 144.191 38.0795C150.375 40.1537 148.364 46.036 146.006 44.0253C143.647 42.0145 148.065 35.1857 152.799 38.2218C157.532 41.258 156.478 47.1561 153.122 47.5936C149.767 48.0311 155.149 40.7255 159.38 45.2323C163.61 49.739 154.386 57.9669 150.609 54.9468C146.832 51.9268 149.783 47.0457 150.69 50.0184C151.598 52.9911 149.158 55.9087 142.463 55.7979C135.768 55.6871 138.808 45.385 141.15 48.3816C143.493 51.3781 139.61 54.7648 134.885 51.2358C130.16 47.7071 135.543 40.4015 138.857 42.4281Z" fill="white"/>
<path d="M142.829 56.23L142.456 56.2266C140.261 56.1904 138.715 55.0669 138.17 53.1296C137.015 52.9837 135.798 52.452 134.629 51.5786C132.776 50.195 132.148 48.0942 132.906 45.8144C133.681 43.4789 135.749 41.6497 137.613 41.6497C137.88 41.6497 138.14 41.6859 138.389 41.7571C138.38 40.8625 138.517 39.3403 139.423 38.3061C140.436 37.1503 142.102 36.9259 144.327 37.6732C145.186 37.9606 145.937 38.3346 146.568 38.7871C148.351 36.9052 150.891 36.4873 153.03 37.8609C155.076 39.1734 156.318 41.1922 156.421 43.3311C157.622 43.3638 158.721 43.9048 159.692 44.9391C161.01 46.3427 161.253 48.2292 160.378 50.2519C159.047 53.327 155.411 56.0253 152.598 56.0261C152.598 56.0261 152.598 56.0261 152.597 56.0261C151.718 56.0261 150.959 55.7756 150.341 55.2816C150.046 55.0453 149.779 54.7898 149.544 54.5186C148.064 55.6398 145.756 56.23 142.829 56.23ZM139.08 53.1627C139.463 54.2446 140.37 55.3351 142.469 55.3693L142.829 55.3728C146.204 55.3728 148.046 54.5805 149.034 53.8287C148.09 52.3039 148.162 50.6371 148.686 49.604C148.989 49.0068 149.429 48.6644 149.893 48.6644C150.204 48.6644 150.775 48.8244 151.101 49.8929C151.555 51.3827 151.22 52.8391 150.182 53.9468C150.386 54.1823 150.618 54.4051 150.877 54.6117C151.338 54.9811 151.917 55.1685 152.597 55.1685C152.598 55.1685 152.598 55.1685 152.598 55.1685C155.067 55.1677 158.4 52.6621 159.591 49.911C160.108 48.7159 160.437 46.9849 159.067 45.5255C158.26 44.6663 157.364 44.2165 156.401 44.1888C156.201 46.2423 154.917 47.7921 153.177 48.0191C152.051 48.163 151.665 47.5743 151.643 47.0249C151.594 45.8148 153.336 43.7805 155.567 43.3939C155.484 41.5247 154.383 39.7478 152.568 38.5827C150.782 37.4381 148.734 37.7778 147.232 39.3338C148.694 40.724 148.967 42.4339 148.56 43.5755C148.276 44.3719 147.667 44.866 146.97 44.8667H146.97C146.553 44.8667 146.124 44.6882 145.728 44.3515C144.427 43.2419 144.846 41.0722 146.02 39.4492C145.468 39.0622 144.809 38.739 144.054 38.4854C142.187 37.859 140.85 37.9821 140.07 38.869C139 40.0876 139.28 42.3496 139.283 42.3719C139.304 42.5362 139.23 42.6978 139.092 42.7875C138.953 42.8779 138.774 42.8794 138.635 42.794C138.324 42.6039 137.98 42.5077 137.614 42.5077C136.121 42.5077 134.375 44.1122 133.72 46.0853C133.42 46.9872 132.958 49.2615 135.142 50.8922C136.096 51.6048 137.074 52.063 138 52.2354C137.839 50.7429 138.227 49.058 138.985 48.1161C139.359 47.6521 139.795 47.407 140.247 47.407C140.56 47.407 141.03 47.5301 141.489 48.118C142.321 49.1823 142.511 50.3843 142.009 51.4135C141.513 52.4289 140.406 53.0838 139.08 53.1627ZM149.893 49.5212C149.814 49.5212 149.624 49.6486 149.451 49.991C149.067 50.7471 149.004 52.0295 149.676 53.2269C150.413 52.362 150.629 51.2831 150.28 50.1426C150.142 49.6905 149.97 49.5212 149.893 49.5212ZM140.247 48.2642C140.066 48.2642 139.855 48.4023 139.653 48.6536C139.082 49.3639 138.663 50.8802 138.872 52.3123C139.958 52.2939 140.862 51.8091 141.238 51.0368C141.59 50.3142 141.436 49.4424 140.813 48.6451C140.676 48.4712 140.468 48.2642 140.247 48.2642ZM155.528 44.2746C153.73 44.6747 152.473 46.3262 152.5 46.9895C152.503 47.0714 152.507 47.1838 152.849 47.1838C152.916 47.1838 152.988 47.178 153.067 47.168C154.353 47.0006 155.318 45.8398 155.528 44.2746ZM146.682 39.9944C145.668 41.4073 145.476 43.0091 146.284 43.6986C146.891 44.2188 147.486 44.0287 147.751 43.2873C148.059 42.4231 147.83 41.1099 146.682 39.9944Z" fill="#241726"/>
<path d="M8.86846 121.191C8.86846 121.191 8.01774 114.769 14.2021 116.843C20.3864 118.917 18.3756 124.799 16.017 122.788C13.6584 120.778 18.0763 113.949 22.8097 116.985C27.5431 120.021 26.4888 125.919 23.1333 126.357C19.7777 126.794 25.1602 119.489 29.3907 123.995C33.6212 128.502 24.3968 136.73 20.62 133.71C16.8431 130.69 19.7939 125.809 20.7015 128.781C21.6092 131.754 19.169 134.672 12.4741 134.561C5.77917 134.45 8.81959 124.148 11.1617 127.145C13.5037 130.141 9.62106 133.528 4.89614 129.999C0.171216 126.47 5.5537 119.165 8.86846 121.191Z" fill="white"/>
<path d="M12.84 134.993L12.4672 134.99C10.2721 134.953 8.72648 133.83 8.18127 131.893C7.02659 131.747 5.8088 131.215 4.63989 130.342C2.78762 128.958 2.1593 126.857 2.91729 124.577C3.69259 122.242 5.76032 120.413 7.62374 120.413C7.89154 120.413 8.15049 120.449 8.39905 120.52C8.39058 119.626 8.52717 118.103 9.43406 117.069C10.4475 115.913 12.1132 115.689 14.3383 116.436C15.1967 116.724 15.9478 117.098 16.5792 117.55C17.6427 116.427 19.0009 115.79 20.3587 115.79C21.2756 115.79 22.1787 116.07 23.0409 116.624C25.0867 117.936 26.3295 119.955 26.4326 122.094C27.6327 122.127 28.7324 122.668 29.7027 123.702C31.021 125.106 31.2637 126.992 30.3888 129.015C29.0583 132.09 25.4226 134.788 22.6096 134.789C22.6088 134.789 22.6088 134.789 22.6081 134.789C21.7289 134.789 20.9701 134.539 20.3522 134.045C20.0574 133.808 19.7904 133.553 19.5549 133.282C18.0751 134.403 15.7669 134.993 12.84 134.993ZM9.09085 131.926C9.4737 133.008 10.3814 134.098 12.4806 134.132L12.84 134.136C16.2148 134.136 18.0574 133.344 19.0455 132.592C18.1009 131.067 18.1729 129.399 18.6973 128.366C18.9997 127.77 19.4403 127.427 19.9039 127.427C20.2144 127.427 20.785 127.587 21.1117 128.656C21.5665 130.145 21.2314 131.602 20.194 132.71C20.3976 132.945 20.6296 133.168 20.8882 133.374C21.3495 133.744 21.9289 133.931 22.6084 133.931C22.6092 133.931 22.6092 133.931 22.6092 133.931C25.0786 133.93 28.4119 131.425 29.6027 128.674C30.1195 127.479 30.4484 125.748 29.0787 124.288C28.2714 123.429 27.3753 122.979 26.413 122.952C26.2122 125.005 24.9282 126.555 23.1887 126.782C22.064 126.927 21.6769 126.337 21.6546 125.788C21.6054 124.578 23.348 122.543 25.5781 122.157C25.4953 120.287 24.3949 118.51 22.5792 117.345C20.7931 116.201 18.7462 116.541 17.2429 118.097C18.705 119.487 18.9782 121.197 18.5711 122.338C18.2864 123.135 17.6777 123.629 16.9816 123.629C16.9816 123.629 16.9816 123.629 16.9809 123.629C16.5638 123.629 16.1351 123.451 15.7396 123.114C14.4376 122.005 14.857 119.835 16.0301 118.212C15.4791 117.825 14.82 117.502 14.0655 117.248C12.1963 116.622 10.8581 116.745 10.0793 117.634C9.00659 118.858 9.29055 121.112 9.29363 121.135C9.3144 121.298 9.24091 121.461 9.10201 121.55C8.96311 121.64 8.78535 121.643 8.64491 121.557C8.33441 121.367 7.99081 121.27 7.62413 121.27C6.13278 121.27 4.38671 122.875 3.73068 124.847C3.43095 125.75 2.96962 128.025 5.15278 129.655C6.10738 130.367 7.08469 130.826 8.01082 130.998C7.84998 129.506 8.23783 127.821 8.99582 126.879C9.37019 126.415 9.80652 126.169 10.2586 126.169C10.571 126.169 11.0408 126.292 11.4999 126.88C12.3321 127.945 12.5226 129.147 12.0201 130.176C11.5245 131.192 10.4175 131.847 9.09085 131.926ZM19.9039 128.284C19.825 128.284 19.635 128.412 19.4618 128.754C19.0782 129.51 19.0155 130.793 19.6869 131.99C20.4237 131.125 20.6392 130.046 20.2906 128.907C20.1529 128.454 19.9801 128.284 19.9039 128.284ZM10.2582 127.027C10.0774 127.027 9.86616 127.165 9.66377 127.417C9.09278 128.127 8.67377 129.643 8.88347 131.075C9.96966 131.057 10.8731 130.572 11.2494 129.8C11.6018 129.077 11.4472 128.205 10.825 127.408C10.688 127.234 10.4795 127.027 10.2582 127.027ZM25.5392 123.038C23.742 123.438 22.4842 125.09 22.5111 125.753C22.5146 125.835 22.5188 125.947 22.8605 125.947C22.9274 125.947 22.9994 125.942 23.0782 125.932C24.3641 125.764 25.3291 124.603 25.5392 123.038ZM16.6923 118.758C15.68 120.171 15.4872 121.773 16.2952 122.462C16.9024 122.982 17.4976 122.792 17.7623 122.051C18.0709 121.186 17.8412 119.873 16.6923 118.758Z" fill="#241726"/>
<path d="M20.0301 82.4164H20.0174C18.3826 82.4107 17.0578 81.0759 17.0636 79.4407C17.0694 77.8127 18.3979 76.4876 20.0263 76.4868C20.8312 76.4895 21.575 76.8008 22.1329 77.3629C22.69 77.9243 22.9963 78.6704 22.9936 79.4618C22.987 81.0894 21.6573 82.4153 20.0301 82.4164ZM20.0359 77.3441C18.8693 77.3448 17.9255 78.2868 17.9212 79.4434C17.917 80.6057 18.8589 81.5546 20.0205 81.5588L20.0301 81.9874L20.0297 81.5588C21.1863 81.558 22.1309 80.6161 22.1363 79.4587C22.1386 78.8958 21.9212 78.366 21.5242 77.967C21.1271 77.5669 20.5988 77.346 20.0359 77.3441Z" fill="#241726"/>
<path d="M93.5577 9.36328H93.545C91.9101 9.35751 90.5854 8.02275 90.5911 6.3875C90.5969 4.75956 91.9255 3.43442 93.5538 3.43365C94.3588 3.43635 95.1025 3.74762 95.6604 4.30977C96.2176 4.87114 96.5238 5.6172 96.5211 6.40866C96.5146 8.03661 95.1849 9.36251 93.5577 9.36328ZM93.5635 4.29091C92.3968 4.29168 91.453 5.23359 91.4488 6.39019C91.4446 7.55257 92.3865 8.5014 93.5481 8.50564L93.5577 8.93426L93.5573 8.50564C94.7139 8.50487 95.6585 7.56296 95.6639 6.40558C95.6662 5.84267 95.4488 5.31285 95.0517 4.91385C94.6546 4.51408 94.126 4.29322 93.5635 4.29091Z" fill="#241726"/>
<path d="M187.887 143.997H187.875C186.24 143.992 184.915 142.657 184.921 141.022C184.926 139.394 186.255 138.069 187.883 138.068C188.688 138.07 189.432 138.382 189.99 138.944C190.547 139.505 190.853 140.251 190.851 141.043C190.844 142.671 189.514 143.996 187.887 143.997ZM187.893 138.925C186.726 138.926 185.783 139.868 185.778 141.024C185.774 142.187 186.716 143.136 187.878 143.14L187.887 143.568L187.887 143.14C189.043 143.139 189.988 142.197 189.993 141.04C189.996 140.477 189.778 139.947 189.381 139.548C188.984 139.148 188.456 138.927 187.893 138.925Z" fill="#241726"/>
<path d="M48.9657 183.444H48.953C47.3181 183.439 45.9933 182.104 45.9991 180.469C46.0049 178.841 47.3335 177.515 48.9618 177.515C49.7667 177.517 50.5105 177.829 51.0684 178.391C51.6255 178.952 51.9318 179.698 51.9291 180.49C51.9226 182.118 50.5928 183.443 48.9657 183.444ZM48.9714 178.372C47.8048 178.373 46.861 179.315 46.8568 180.471C46.8525 181.634 47.7944 182.582 48.956 182.587L48.9657 183.015L48.9653 182.587C50.1219 182.586 51.0665 181.644 51.0719 180.487C51.0742 179.924 50.8568 179.394 50.4597 178.995C50.0626 178.595 49.534 178.374 48.9714 178.372Z" fill="#241726"/>
<path d="M38.9475 18.4807C38.7367 18.4807 38.5497 18.3591 38.4485 18.1567C38.4227 18.0913 37.864 16.481 37.2384 14.4837C34.974 14.6838 33.8617 14.5718 33.5585 14.0181C33.4865 13.8873 33.3977 13.6168 33.6139 13.2779C34.0487 12.5937 35.3003 11.4179 36.128 10.6749C35.2303 7.26744 35.3584 6.45828 35.6347 6.09813C35.8013 5.88113 36.071 5.79417 36.3492 5.87689C37.0091 6.07197 38.6078 6.83496 39.9687 7.526C42.6428 5.53638 43.2958 5.53638 43.5135 5.53638C43.8475 5.53638 44.098 5.72568 44.1657 6.02888C44.2019 6.19202 44.3088 6.67297 43.4096 9.37865C46.8229 11.3356 46.8825 11.8158 46.9152 12.0778C46.9372 12.2544 46.8768 12.4252 46.7494 12.546C46.2538 13.0166 42.8594 13.6565 41.7255 13.86C39.804 18.4799 39.248 18.4807 38.9475 18.4807ZM38.1091 14.3948C38.5085 15.6661 38.8744 16.7596 39.0756 17.3518C39.3823 16.8989 39.9248 15.9012 40.7228 14.0305C39.799 14.1805 38.914 14.3044 38.1091 14.3948ZM34.4177 13.6203C34.5735 13.663 34.889 13.7165 35.5012 13.7165C35.9156 13.7165 36.4108 13.6923 36.9783 13.6453C36.757 12.9185 36.557 12.2351 36.3796 11.603C35.4354 12.4679 34.7309 13.1913 34.4177 13.6203ZM37.0933 10.9639C37.3069 11.7461 37.5604 12.618 37.8505 13.5607C38.8329 13.4533 39.9491 13.2944 41.1122 13.0959C41.562 11.9931 42.0006 10.8331 42.3685 9.77457C41.6424 9.36826 40.8529 8.9454 40.0556 8.53332C39.0864 9.27207 38.0506 10.1232 37.0933 10.9639ZM43.1272 10.2051C42.8217 11.0762 42.4716 12.0081 42.1088 12.9185C44.0407 12.5583 45.3362 12.2267 45.8941 12.0316C45.6093 11.7703 44.8975 11.2274 43.1272 10.2051ZM36.2903 6.76147C36.2611 7.06313 36.3011 7.88114 36.849 10.0393C37.6205 9.37172 38.43 8.70685 39.2088 8.10315C37.934 7.46405 36.8413 6.96155 36.2903 6.76147ZM40.819 7.96425C41.4481 8.29245 42.066 8.62566 42.6478 8.94925C43.0999 7.56986 43.2757 6.80033 43.3204 6.43942C43.0183 6.54215 42.315 6.8769 40.819 7.96425Z" fill="#241726"/>
<path d="M190.499 180.042C189.795 180.042 186.857 178.311 185.88 177.723C184.419 178.442 182.075 179.529 181.22 179.529C180.977 179.529 180.793 179.451 180.675 179.298C180.569 179.161 180.537 178.984 180.584 178.801C180.607 178.735 181.247 177.155 182.091 175.24C179.804 173.575 179.547 172.938 179.621 172.5C179.642 172.374 179.736 172.069 180.156 171.946C180.933 171.717 182.65 171.655 183.762 171.641C185.493 168.155 186.102 167.858 186.536 167.858C186.758 167.858 186.959 167.973 187.087 168.175C187.455 168.756 188.156 170.383 188.726 171.799C192.465 172.094 192.739 172.597 192.873 172.841C192.975 173.029 192.974 173.245 192.871 173.435C192.791 173.58 192.555 174.014 190.097 175.459C191.379 179.18 191.107 179.58 190.959 179.799C190.859 179.946 190.7 180.035 190.526 180.042C190.519 180.042 190.505 180.042 190.499 180.042ZM186.788 177.267C188.48 178.269 189.673 178.872 190.22 179.091C190.178 178.707 190 177.831 189.34 175.894C188.537 176.35 187.661 176.821 186.788 177.267ZM182.805 175.746C182.27 176.965 181.825 178.028 181.586 178.607C182.16 178.458 183.27 178.032 185.013 177.192C184.218 176.697 183.471 176.207 182.805 175.746ZM183.159 174.948C183.969 175.514 184.915 176.128 185.921 176.745C186.986 176.21 188.079 175.627 189.053 175.071C188.773 174.288 188.457 173.449 188.128 172.614C186.966 172.537 185.666 172.495 184.435 172.495H184.298C183.945 173.223 183.563 174.046 183.159 174.948ZM189.078 172.689C189.335 173.35 189.582 174.008 189.807 174.634C191.056 173.893 191.694 173.429 191.965 173.187C191.671 173.067 190.921 172.855 189.078 172.689ZM180.536 172.734C180.679 172.95 181.117 173.455 182.447 174.438C182.76 173.744 183.058 173.098 183.341 172.507C182.06 172.536 181.054 172.617 180.536 172.734ZM184.724 171.638C185.741 171.643 186.796 171.677 187.774 171.734C187.23 170.401 186.734 169.296 186.453 168.788C186.268 168.972 185.762 169.591 184.724 171.638Z" fill="#241726"/>
<path d="M34.8121 177.025C34.6262 177.025 34.4554 176.929 34.3438 176.761C34.3095 176.699 33.5593 175.168 32.6958 173.262C31.5719 173.502 30.7028 173.624 30.1083 173.624C29.7289 173.624 29.1964 173.582 28.9644 173.214C28.8897 173.096 28.7885 172.847 28.9517 172.505C29.2999 171.773 30.3996 170.454 31.1306 169.616C29.8039 166.29 29.8528 165.475 30.1079 165.098C30.2276 164.919 30.4219 164.817 30.6404 164.817C30.6639 164.817 30.7435 164.823 30.767 164.827C31.4461 164.941 33.1252 165.504 34.5596 166.024C37.0895 163.612 37.7051 163.612 37.9406 163.612C38.2253 163.612 38.4516 163.767 38.5435 164.029C38.5997 164.185 38.7647 164.65 38.2011 167.445C41.8271 168.973 41.9445 169.443 42.0079 169.698C42.0506 169.872 42.0114 170.048 41.8998 170.184C41.465 170.711 38.1741 171.758 37.0737 172.097C35.6982 177.026 35.1453 177.025 34.8121 177.025ZM33.5493 173.068C34.1002 174.281 34.597 175.322 34.8682 175.886C35.1179 175.399 35.5346 174.343 36.0991 172.388C35.2014 172.65 34.3373 172.88 33.5493 173.068ZM29.7916 172.747C29.862 172.757 29.964 172.767 30.1083 172.767C30.605 172.766 31.3696 172.661 32.3369 172.461C32.0279 171.766 31.7466 171.112 31.4942 170.507C30.6608 171.48 30.0494 172.284 29.7916 172.747ZM32.1241 169.786C32.4307 170.535 32.789 171.369 33.191 172.272C34.1541 172.046 35.2426 171.752 36.3734 171.413C36.6859 170.264 36.9798 169.059 37.2168 167.964C36.4465 167.649 35.6116 167.325 34.769 167.014C33.8978 167.864 32.9721 168.834 32.1241 169.786ZM38.0214 168.299C37.8236 169.201 37.5901 170.168 37.3407 171.116C39.2149 170.524 40.46 170.038 40.9895 169.777C40.6759 169.552 39.9029 169.099 38.0214 168.299ZM30.8166 165.712C30.8243 166.015 30.9632 166.821 31.7697 168.897C32.4538 168.141 33.1776 167.383 33.8759 166.689C32.5335 166.21 31.388 165.844 30.8166 165.712ZM35.4577 166.355C36.1218 166.605 36.7767 166.86 37.3931 167.11C37.6743 165.685 37.7547 164.901 37.7555 164.537C37.4712 164.675 36.8128 165.092 35.4577 166.355Z" fill="#241726"/>
<path d="M155.628 173.248C155.517 173.248 155.406 173.206 155.322 173.12C155.156 172.95 155.159 172.679 155.328 172.513C155.57 172.251 157.065 170.176 157.75 169.088C156.791 169.359 155.032 169.956 153.437 170.536C153.214 170.616 152.969 170.502 152.888 170.28C152.807 170.057 152.921 169.811 153.144 169.73C158.593 167.746 158.701 167.957 158.888 168.345C159.208 169 155.964 173.091 155.928 173.126C155.845 173.207 155.736 173.248 155.628 173.248Z" fill="#241726"/>
<path d="M149.339 174.118C149.339 174.118 148.736 167.51 152.358 168.211C157.374 169.183 161.449 181.075 152.87 185.003C144.291 188.931 139.915 182.041 139.915 182.041L144.573 180.253C144.573 180.253 140.638 177.639 140.571 175.05C140.506 172.46 143.552 174.317 143.552 174.317C143.552 174.317 139.492 168.901 142.087 168.356C144.682 167.81 149.339 174.118 149.339 174.118Z" fill="#F0BF00"/>
<path d="M152.983 172.939C152.097 172.939 151.093 171.826 150.789 171.464C150.637 171.282 150.662 171.012 150.842 170.86C151.023 170.706 151.294 170.731 151.446 170.913C151.886 171.436 152.531 171.98 152.877 172.07C152.823 171.715 152.454 170.895 152.014 170.181C151.89 169.98 151.953 169.715 152.155 169.592C152.353 169.467 152.62 169.529 152.744 169.732C153.213 170.492 153.954 171.866 153.671 172.523C153.582 172.731 153.409 172.872 153.184 172.919C153.119 172.933 153.051 172.939 152.983 172.939Z" fill="#241726"/>
<path d="M145.866 180.157C145.791 180.157 145.714 180.137 145.644 180.095C145.354 179.918 142.807 178.321 142.731 176.726C142.706 176.198 142.979 175.96 143.143 175.865C143.626 175.584 144.427 175.834 145.119 176.163C144.588 174.597 144.604 173.668 145.168 173.395C145.404 173.281 146.127 172.925 149.585 176.868C149.74 177.046 149.723 177.317 149.545 177.473C149.366 177.628 149.096 177.611 148.94 177.434C147.72 176.043 146.173 174.529 145.582 174.238C145.557 174.677 145.876 175.847 146.335 176.947C146.407 177.121 146.359 177.32 146.215 177.44C146.072 177.56 145.867 177.573 145.708 177.473C144.859 176.931 143.843 176.521 143.587 176.602C143.59 176.611 143.586 176.639 143.588 176.686C143.629 177.548 145.144 178.785 146.091 179.363C146.293 179.486 146.356 179.75 146.233 179.953C146.152 180.085 146.011 180.157 145.866 180.157Z" fill="#241726"/>
<path d="M149.101 184.009C148.57 184.009 148.224 183.968 148.179 183.962C147.944 183.932 147.778 183.717 147.808 183.483C147.837 183.247 148.051 183.078 148.287 183.111C148.321 183.115 151.758 183.518 154.03 181.517C155.383 180.325 156.071 178.506 156.076 176.111C156.076 175.875 156.268 175.683 156.504 175.683H156.505C156.742 175.684 156.934 175.876 156.933 176.113C156.928 178.768 156.141 180.804 154.592 182.166C152.773 183.764 150.391 184.009 149.101 184.009Z" fill="#241726"/>
<path d="M128.167 10.2067C128.062 10.2067 127.956 10.1674 127.874 10.087C127.838 10.052 124.595 5.96271 124.913 5.30514C125.102 4.91922 125.203 4.70645 130.658 6.69107C130.88 6.77225 130.995 7.01773 130.914 7.24051C130.833 7.46329 130.589 7.57795 130.364 7.49677C128.769 6.91654 127.01 6.32015 126.052 6.04889C126.736 7.13663 128.232 9.21359 128.479 9.47985C128.638 9.65069 128.635 9.92118 128.469 10.0828C128.384 10.1659 128.275 10.2067 128.167 10.2067Z" fill="#241726"/>
<path d="M134.463 11.0785C134.463 11.0785 135.066 4.47019 131.444 5.172C126.428 6.14392 122.353 18.0359 130.932 21.9636C139.511 25.8912 143.887 19.002 143.887 19.002L139.229 17.214C139.229 17.214 143.164 14.5999 143.231 12.0104C143.296 9.42097 140.25 11.2778 140.25 11.2778C140.25 11.2778 144.31 5.8615 141.715 5.31629C139.12 4.77108 134.463 11.0785 134.463 11.0785Z" fill="#F0BF00"/>
<path d="M130.817 9.89927C130.75 9.89927 130.683 9.8935 130.616 9.87926C130.392 9.83232 130.219 9.69149 130.13 9.48333C129.846 8.82577 130.589 7.45254 131.058 6.69301C131.182 6.49101 131.449 6.4283 131.647 6.55219C131.849 6.67608 131.912 6.94003 131.788 7.14165C131.341 7.86847 130.977 8.67687 130.924 9.03085C131.27 8.93966 131.916 8.39676 132.356 7.87348C132.508 7.69187 132.779 7.6684 132.96 7.82076C133.14 7.97236 133.165 8.24285 133.013 8.42446C132.709 8.78729 131.704 9.89927 130.817 9.89927Z" fill="#241726"/>
<path d="M137.936 17.1182C137.791 17.1182 137.65 17.0455 137.569 16.9131C137.446 16.7104 137.509 16.4468 137.711 16.3237C138.658 15.7457 140.174 14.508 140.215 13.6465C140.218 13.5703 140.206 13.5426 140.206 13.5426C140.004 13.4545 138.962 13.8792 138.094 14.4337C137.937 14.5341 137.731 14.5218 137.588 14.401C137.444 14.2806 137.395 14.0813 137.467 13.9077C137.926 12.8065 138.245 11.6376 138.22 11.1986C137.63 11.4891 136.082 13.0031 134.862 14.3944C134.705 14.5718 134.436 14.5895 134.256 14.4337C134.079 14.2771 134.061 14.0066 134.217 13.8281C137.668 9.89385 138.396 10.2378 138.635 10.3567C139.198 10.6287 139.214 11.5576 138.683 13.1236C139.376 12.7934 140.179 12.5457 140.66 12.8254C140.824 12.92 141.096 13.1586 141.071 13.6861C140.995 15.2813 138.449 16.8785 138.158 17.0551C138.088 17.0982 138.011 17.1182 137.936 17.1182Z" fill="#241726"/>
<path d="M134.701 20.9697C133.411 20.9697 131.028 20.725 129.21 19.1267C127.661 17.765 126.874 15.7285 126.869 13.0736C126.868 12.8366 127.06 12.645 127.297 12.6438H127.298C127.534 12.6438 127.726 12.8354 127.726 13.0717C127.731 15.4691 128.421 17.2898 129.776 18.4822C132.056 20.4853 135.479 20.0767 135.514 20.0717C135.746 20.0367 135.964 20.2083 135.994 20.4426C136.024 20.6781 135.858 20.8924 135.623 20.9224C135.578 20.9286 135.232 20.9697 134.701 20.9697Z" fill="#241726"/>
<path d="M103.785 176.771C103.736 176.771 103.688 176.762 103.642 176.746L45.5674 156.124C45.3646 156.052 45.2465 155.842 45.2911 155.632L49.3512 136.182C49.3762 136.062 49.4524 135.958 49.5597 135.897C49.6679 135.836 49.796 135.823 49.9122 135.866L109.231 156.596C109.269 156.609 109.306 156.628 109.34 156.652L131.91 172.897C132.053 173.001 132.119 173.182 132.074 173.354C132.028 173.525 131.883 173.651 131.707 173.671L103.833 176.768C103.817 176.77 103.801 176.771 103.785 176.771ZM46.2073 155.441L103.835 175.905L130.504 172.942L108.889 157.385L50.0907 136.836L46.2073 155.441Z" fill="#241726"/>
<path d="M103.784 176.342L101.532 169.585L109.505 167.836L104.156 161.988L110.215 156.49L48.886 135.032L44.5428 156.834L103.784 176.342Z" fill="#F0BF00"/>
<path d="M101.532 170.013C101.49 170.013 101.448 170.008 101.405 169.994L49.3793 153.972C49.153 153.902 49.0261 153.663 49.0961 153.436C49.1646 153.209 49.4016 153.08 49.6321 153.153L101.658 169.175C101.884 169.245 102.011 169.484 101.941 169.711C101.886 169.895 101.715 170.013 101.532 170.013Z" fill="#241726"/>
<path d="M104.156 162.417C104.11 162.417 104.063 162.409 104.018 162.394L47.4743 143.079C47.25 143.002 47.1299 142.758 47.2065 142.534C47.2835 142.311 47.5305 142.194 47.7509 142.267L104.295 161.582C104.519 161.659 104.639 161.903 104.563 162.127C104.502 162.305 104.335 162.417 104.156 162.417Z" fill="#241726"/>
<path d="M117.018 175.497L119.552 164.798L131.659 173.245L117.018 175.497Z" fill="#241726"/>
<path d="M54.8268 160.602L60.5964 139.384L46.8737 135.521L43.9079 156.389L54.8268 160.602Z" fill="white"/>
<path d="M54.8272 161.03C54.7752 161.03 54.7225 161.021 54.6733 161.002L43.7548 156.789C43.5682 156.717 43.4566 156.527 43.4843 156.329L46.4497 135.461C46.4674 135.338 46.5366 135.229 46.6397 135.162C46.7429 135.094 46.8691 135.074 46.9907 135.108L60.7129 138.971C60.9392 139.035 61.0723 139.269 61.0104 139.496L55.2412 160.714C55.2092 160.831 55.13 160.929 55.0211 160.984C54.9603 161.014 54.8934 161.03 54.8272 161.03ZM44.3808 156.112L54.5382 160.03L60.0711 139.681L47.23 136.066L44.3808 156.112Z" fill="#241726"/>
<path d="M47.4351 158.134L52.3885 136.27L42.5886 133.546L37.2107 155.339L47.4351 158.134Z" fill="#E17B8D"/>
<path d="M50.6548 158.881C50.6186 158.881 50.5821 158.877 50.5451 158.867C50.3158 158.806 50.18 158.572 50.2404 158.343L55.5121 138.496C55.5725 138.267 55.8045 138.127 56.0361 138.191C56.2654 138.252 56.4012 138.486 56.3408 138.715L51.0692 158.562C51.0184 158.755 50.8448 158.881 50.6548 158.881Z" fill="#241726"/>
<path d="M41.6786 151.887C41.6786 151.887 43.3935 145.028 43.6948 144.078Z" fill="white"/>
<path d="M41.6782 152.316C41.644 152.316 41.6097 152.312 41.5743 152.304C41.3438 152.246 41.2049 152.013 41.2619 151.784C41.3323 151.503 42.9837 144.9 43.2861 143.949C43.3573 143.723 43.5959 143.6 43.8244 143.67C44.0495 143.742 44.1753 143.982 44.1034 144.208C43.8094 145.134 42.1111 151.923 42.0945 151.991C42.046 152.187 41.871 152.316 41.6782 152.316Z" fill="#241726"/>
<path d="M44.3908 142.051C44.3673 142.051 44.3431 142.049 44.3196 142.045C44.0861 142.006 43.9275 141.785 43.9672 141.551L44.6163 137.659C44.6555 137.425 44.8791 137.265 45.1095 137.307C45.3431 137.345 45.5016 137.566 45.462 137.8L44.8129 141.692C44.7779 141.902 44.5959 142.051 44.3908 142.051Z" fill="#241726"/>
<path d="M27.5823 28.1826L118.676 18.6277L131.23 119.928L38.1083 133.304L27.5823 28.1826Z" fill="#B1739A"/>
<path d="M38.4162 33.1745L112.557 25.3976L121.57 111.983L46.3923 123.13L38.4162 33.1745Z" fill="white"/>
<path d="M46.3923 123.56C46.2969 123.56 46.203 123.528 46.1269 123.468C46.0337 123.395 45.9753 123.287 45.9653 123.169L37.9887 33.2122C37.9679 32.9794 38.1387 32.7724 38.3715 32.7482L112.513 24.9717C112.618 24.9567 112.739 24.9936 112.827 25.0648C112.916 25.1368 112.972 25.2406 112.983 25.3538L121.997 111.939C122.021 112.167 121.86 112.374 121.633 112.407L46.4551 123.555C46.4343 123.558 46.4131 123.56 46.3923 123.56ZM38.8806 33.5573L46.7794 122.64L121.102 111.619L112.175 25.8693L38.8806 33.5573Z" fill="#241726"/>
<path d="M58.5182 24.7943L59.4748 32.8663C59.4748 32.8663 92.9567 30.2626 92.7174 28.9606C92.478 27.6585 91.2826 19.0659 91.2826 19.0659C91.2826 19.0659 82.4337 20.6281 81.2379 19.5865C80.042 18.5449 84.825 9.95236 75.9766 9.43139C67.1278 8.9108 67.3671 15.1598 67.8453 16.9824C68.3236 18.8051 70.4314 20.7343 69.9977 21.4091C68.3236 24.0132 58.04 23.2322 58.5182 24.7943Z" fill="#F0BF00"/>
<path d="M46.8852 46.3231L106.795 39.6401L107.272 44.4139L47.6013 50.8584L46.8852 46.3231Z" fill="#52AFA6"/>
<path d="M48.3173 57.0639L108.227 50.3809L108.704 55.1546L49.0334 61.5991L48.3173 57.0639Z" fill="#52AFA6"/>
<path d="M49.5105 68.2821L86.2679 64.2247L86.7454 68.7596L50.2265 72.8173L49.5105 68.2821Z" fill="#52AFA6"/>
<path d="M51.6586 84.7512L111.568 78.0682L112.046 82.842L52.3747 89.2864L51.6586 84.7512Z" fill="#52AFA6"/>
<path d="M53.0907 95.492L113 88.809L113.478 93.5827L53.8068 100.027L53.0907 95.492Z" fill="#52AFA6"/>
<path d="M54.2843 106.71L91.0417 102.652L91.5188 107.188L55.0003 111.245L54.2843 106.71Z" fill="#52AFA6"/>
<path d="M171.429 161.514L101.39 145.915L121.9 60.302L177.56 71.8669L189.9 86.8747L171.429 161.514Z" fill="white"/>
<path d="M171.428 161.943C171.398 161.943 171.367 161.939 171.335 161.933L101.298 146.334C101.185 146.309 101.088 146.24 101.027 146.142C100.966 146.045 100.947 145.927 100.974 145.816L121.484 60.2023C121.537 59.9761 121.758 59.8295 121.988 59.8826L177.647 71.4475C177.744 71.4667 177.829 71.5194 177.891 71.5949L190.231 86.6026C190.317 86.7073 190.349 86.8462 190.316 86.9778L171.845 161.617C171.796 161.812 171.622 161.943 171.428 161.943ZM101.909 145.591L171.113 161.005L189.432 86.9813L177.325 72.2567L122.22 60.8064L101.909 145.591Z" fill="#241726"/>
<path d="M151.047 85.8704L182.103 92.4288L181.313 96.6481L149.79 90.1987L151.047 85.8704Z" fill="#52AFA6"/>
<path d="M149.007 93.0975L167.72 96.6989L166.847 100.899L147.833 97.4457L149.007 93.0975Z" fill="#52AFA6"/>
<path d="M146.005 107.222L177.061 113.78L176.271 118L144.748 111.55L146.005 107.222Z" fill="#52AFA6"/>
<path d="M143.965 114.449L162.679 118.051L161.805 122.25L142.792 118.798L143.965 114.449Z" fill="#52AFA6"/>
<path d="M139.877 129.122L170.933 135.68L170.143 139.9L138.62 133.45L139.877 129.122Z" fill="#52AFA6"/>
<path d="M137.837 136.349L156.551 139.95L155.677 144.15L136.663 140.697L137.837 136.349Z" fill="#52AFA6"/>
<path d="M125.827 82.6192L139.76 85.8158L136.937 95.1553L123.622 91.7955L125.827 82.6192Z" fill="white"/>
<path d="M137.23 95.6712L123.106 92.1079L125.51 82.1071L140.303 85.5011L137.23 95.6712ZM124.138 91.483L136.645 94.6393L139.216 86.1309L126.145 83.1321L124.138 91.483Z" fill="black"/>
<path d="M122.581 81.3145L126.774 79.4006L129.918 85.6042L140.893 78.568L143.625 82.5045L127.997 91.8986L122.581 81.3145Z" fill="#E17B8D"/>
<path d="M121.213 103.558L135.147 106.754L132.324 116.093L119.008 112.734L121.213 103.558Z" fill="white"/>
<path d="M132.616 116.609L118.493 113.046L120.895 103.045L135.69 106.439L132.616 116.609ZM119.524 112.422L132.032 115.577L134.603 107.069L121.53 104.07L119.524 112.422Z" fill="black"/>
<path d="M117.968 102.253L122.161 100.339L125.304 106.543L136.279 99.5065L139.012 103.443L123.384 112.837L117.968 102.253Z" fill="#E17B8D"/>
<path d="M116.727 126.273L130.66 129.469L127.837 138.809L114.522 135.449L116.727 126.273Z" fill="white"/>
<path d="M128.129 139.324L114.006 135.761L116.409 125.76L131.204 129.154L128.129 139.324ZM115.038 135.137L127.545 138.293L130.117 129.785L117.044 126.786L115.038 135.137Z" fill="black"/>
<path d="M113.481 124.968L117.674 123.054L120.818 129.258L131.793 122.222L134.525 126.158L118.897 135.552L113.481 124.968Z" fill="#E17B8D"/>
<path d="M189.901 87.3033C189.875 87.3033 189.85 87.3006 189.824 87.2968L174.891 84.6011C174.777 84.5803 174.676 84.5149 174.612 84.4187C174.547 84.3225 174.524 84.2044 174.548 84.0905L177.141 71.7784C177.189 71.5464 177.421 71.3948 177.648 71.4475C177.88 71.496 178.028 71.7238 177.98 71.9558L175.479 83.8358L189.976 86.453C190.209 86.4949 190.364 86.7185 190.322 86.9512C190.284 87.1575 190.104 87.3033 189.901 87.3033Z" fill="#241726"/>
<path d="M102.189 197C101.657 197 101.124 196.974 100.606 196.922C100.37 196.9 100.199 196.69 100.221 196.453C100.246 196.218 100.444 196.056 100.691 196.069C101.181 196.118 101.685 196.143 102.189 196.143L102.353 196.142C102.356 196.142 102.358 196.142 102.36 196.142C102.593 196.142 102.785 196.33 102.788 196.564C102.792 196.801 102.602 196.996 102.366 197L102.189 197ZM104.07 196.894C103.857 196.894 103.672 196.734 103.646 196.516C103.617 196.281 103.786 196.067 104.02 196.04L104.191 196.02C104.711 195.957 105.208 195.878 105.682 195.786C105.909 195.738 106.141 195.891 106.185 196.124C106.231 196.356 106.079 196.581 105.847 196.627C105.343 196.726 104.82 196.808 104.292 196.87L104.122 196.89C104.104 196.893 104.088 196.894 104.07 196.894ZM98.9571 196.654C98.9271 196.654 98.8959 196.651 98.864 196.644C98.2918 196.518 97.7208 196.354 97.1672 196.157C96.9436 196.078 96.827 195.833 96.9059 195.61C96.9863 195.386 97.2341 195.272 97.4534 195.349C97.9744 195.534 98.5112 195.688 99.0494 195.807C99.2807 195.858 99.4261 196.087 99.3753 196.319C99.3311 196.518 99.1537 196.654 98.9571 196.654ZM107.429 196.228C107.244 196.228 107.074 196.107 107.018 195.921C106.951 195.694 107.08 195.456 107.307 195.388C107.857 195.225 108.383 195.035 108.871 194.825C109.088 194.73 109.34 194.831 109.434 195.049C109.528 195.266 109.428 195.519 109.21 195.612C108.692 195.836 108.134 196.037 107.552 196.21C107.51 196.222 107.47 196.228 107.429 196.228ZM95.7362 195.509C95.6708 195.509 95.6054 195.495 95.5435 195.464C95.0217 195.201 94.5084 194.902 94.0175 194.573C93.8209 194.441 93.7678 194.175 93.9001 193.978C94.0309 193.783 94.2972 193.729 94.4946 193.861C94.9559 194.169 95.4384 194.451 95.9282 194.697C96.1402 194.803 96.2245 195.061 96.1191 195.273C96.0444 195.423 95.8928 195.509 95.7362 195.509ZM110.564 194.865C110.42 194.865 110.278 194.793 110.198 194.659C110.075 194.457 110.138 194.194 110.341 194.071C110.819 193.78 111.266 193.455 111.669 193.107C111.847 192.952 112.118 192.971 112.273 193.15C112.428 193.33 112.409 193.6 112.23 193.755C111.791 194.134 111.306 194.487 110.787 194.803C110.717 194.845 110.64 194.865 110.564 194.865ZM78.1228 194.299L78.0116 193.878L77.9824 193.45C78.5738 193.4 79.1036 193.325 79.6253 193.221C79.8539 193.175 80.0836 193.324 80.1294 193.558C80.1755 193.79 80.0247 194.016 79.7927 194.062C79.2402 194.172 78.6784 194.252 78.1228 194.299ZM76.3209 194.165C76.2867 194.165 76.2513 194.161 76.2155 194.152C75.6395 194.006 75.0732 193.762 74.5349 193.424C74.3348 193.299 74.2736 193.034 74.399 192.833C74.5256 192.633 74.7892 192.573 74.9904 192.697C75.4525 192.987 75.9358 193.197 76.4268 193.321C76.6561 193.379 76.7954 193.611 76.7365 193.842C76.6876 194.036 76.5126 194.165 76.3209 194.165ZM81.3664 193.637C81.1855 193.637 81.017 193.521 80.9585 193.339C80.8858 193.114 81.0089 192.873 81.2348 192.8C81.7581 192.631 82.2798 192.428 82.7865 192.197C83.0036 192.101 83.2563 192.194 83.3545 192.41C83.4526 192.625 83.3579 192.88 83.1417 192.978C82.6057 193.222 82.0532 193.437 81.498 193.616C81.4545 193.63 81.4099 193.637 81.3664 193.637ZM92.8897 193.61C92.7908 193.61 92.692 193.577 92.6108 193.507C92.1687 193.129 91.7408 192.718 91.3395 192.287C91.1787 192.114 91.1879 191.842 91.3614 191.681C91.535 191.52 91.8062 191.529 91.9678 191.703C92.3472 192.11 92.7508 192.498 93.1687 192.856C93.3488 193.01 93.3695 193.28 93.2156 193.46C93.131 193.559 93.0102 193.61 92.8897 193.61ZM123.833 193.227C123.605 193.227 123.416 193.049 123.405 192.82C123.394 192.583 123.576 192.382 123.812 192.371C124.355 192.344 124.903 192.272 125.44 192.154C125.674 192.103 125.9 192.25 125.95 192.482C126 192.713 125.854 192.942 125.623 192.992C125.038 193.119 124.443 193.198 123.854 193.226C123.846 193.227 123.84 193.227 123.833 193.227ZM122.124 193.164C122.106 193.164 122.089 193.163 122.071 193.16C121.489 193.089 120.901 192.967 120.325 192.799C120.098 192.733 119.968 192.495 120.035 192.267C120.101 192.041 120.335 191.908 120.566 191.977C121.097 192.132 121.639 192.244 122.175 192.309C122.41 192.338 122.577 192.551 122.549 192.787C122.522 193.005 122.337 193.164 122.124 193.164ZM113.135 192.627C113.041 192.627 112.947 192.597 112.869 192.534C112.683 192.387 112.652 192.117 112.799 191.932C113.137 191.504 113.433 191.044 113.678 190.563C113.786 190.351 114.047 190.269 114.254 190.376C114.465 190.483 114.55 190.741 114.442 190.952C114.172 191.483 113.845 191.992 113.47 192.464C113.386 192.571 113.261 192.627 113.135 192.627ZM127.173 192.51C126.998 192.51 126.835 192.402 126.771 192.23C126.689 192.007 126.802 191.761 127.023 191.679C127.564 191.479 128.088 191.265 128.584 191.042C128.797 190.945 129.053 191.039 129.151 191.257C129.248 191.473 129.152 191.727 128.936 191.824C128.423 192.055 127.881 192.276 127.322 192.483C127.272 192.501 127.222 192.51 127.173 192.51ZM73.4341 192.417C73.3244 192.417 73.2155 192.375 73.1316 192.292C72.7415 191.904 72.3629 191.465 71.9735 190.948C71.8311 190.76 71.8688 190.491 72.0581 190.347C72.2459 190.207 72.5152 190.241 72.6588 190.432C73.0231 190.915 73.3763 191.325 73.7365 191.684C73.9046 191.851 73.9046 192.123 73.738 192.291C73.6545 192.375 73.5437 192.417 73.4341 192.417ZM84.4818 192.22C84.336 192.22 84.1936 192.145 84.1144 192.012C83.992 191.808 84.059 191.545 84.2617 191.424C84.7365 191.14 85.2013 190.826 85.6427 190.49C85.832 190.346 86.1017 190.384 86.2433 190.571C86.3872 190.76 86.3506 191.028 86.1621 191.172C85.6958 191.528 85.204 191.859 84.7023 192.159C84.6323 192.2 84.5572 192.22 84.4818 192.22ZM118.844 192.212C118.783 192.212 118.721 192.2 118.663 192.172C118.141 191.93 117.619 191.642 117.111 191.317C116.912 191.189 116.854 190.923 116.982 190.724C117.11 190.524 117.375 190.467 117.575 190.595C118.05 190.9 118.537 191.169 119.025 191.396C119.239 191.495 119.332 191.75 119.233 191.965C119.16 192.12 119.005 192.212 118.844 192.212ZM90.5565 191.104C90.4257 191.104 90.296 191.045 90.2121 190.931C89.862 190.46 89.5353 189.965 89.2406 189.46C89.1209 189.256 89.1902 188.993 89.3945 188.874C89.5981 188.752 89.8608 188.823 89.9809 189.028C90.2599 189.506 90.5696 189.974 90.9005 190.419C91.0421 190.609 91.0017 190.878 90.8116 191.019C90.7358 191.077 90.6462 191.104 90.5565 191.104ZM130.292 191.094C130.142 191.094 129.996 191.015 129.918 190.874C129.803 190.667 129.877 190.406 130.084 190.291C130.593 190.007 131.065 189.708 131.488 189.402C131.677 189.266 131.945 189.305 132.087 189.498C132.226 189.689 132.182 189.958 131.991 190.097C131.542 190.423 131.04 190.74 130.501 191.04C130.435 191.077 130.364 191.094 130.292 191.094ZM115.963 190.365C115.865 190.365 115.768 190.332 115.687 190.265C115.411 190.033 115.143 189.79 114.885 189.538C114.791 189.59 114.678 189.608 114.564 189.575C114.336 189.512 114.202 189.276 114.265 189.047C114.28 188.991 114.295 188.935 114.31 188.879C114.267 188.738 114.299 188.58 114.403 188.466C114.47 188.13 114.514 187.788 114.537 187.445C114.553 187.209 114.735 187.019 114.995 187.046C115.231 187.062 115.409 187.266 115.393 187.503C115.366 187.897 115.313 188.289 115.236 188.675C115.552 189.002 115.889 189.315 116.238 189.609C116.42 189.761 116.443 190.032 116.291 190.212C116.207 190.313 116.085 190.365 115.963 190.365ZM87.2067 190.147C87.0936 190.147 86.9805 190.102 86.8962 190.013C86.7331 189.843 86.7396 189.571 86.9112 189.407C87.3183 189.019 87.7008 188.61 88.0486 188.191C88.1994 188.01 88.4692 187.984 88.6523 188.135C88.8347 188.287 88.8601 188.556 88.7085 188.739C88.3399 189.184 87.9339 189.617 87.5026 190.028C87.4195 190.107 87.3129 190.147 87.2067 190.147ZM71.3482 189.702C71.2059 189.702 71.067 189.631 70.9846 189.501C70.6841 189.022 70.3909 188.52 70.1012 188.003C69.9858 187.796 70.0593 187.535 70.2663 187.42C70.4714 187.306 70.7334 187.377 70.85 187.585C71.1312 188.088 71.4179 188.578 71.7118 189.045C71.8373 189.245 71.7773 189.51 71.576 189.637C71.5056 189.681 71.4267 189.702 71.3482 189.702ZM133.043 189.068C132.935 189.068 132.826 189.027 132.742 188.945C132.574 188.779 132.572 188.507 132.738 188.338C133.14 187.931 133.474 187.507 133.73 187.075C133.851 186.871 134.114 186.805 134.318 186.926C134.521 187.047 134.588 187.311 134.467 187.514C134.175 188.004 133.798 188.485 133.348 188.941C133.264 189.026 133.154 189.068 133.043 189.068ZM88.8324 188.145C88.6673 188.145 88.5099 188.049 88.4395 187.888C88.1925 187.323 87.9905 186.761 87.8389 186.218C87.7754 185.99 87.9086 185.753 88.1363 185.69C88.3641 185.623 88.6011 185.759 88.6646 185.987C88.7516 186.298 88.8555 186.615 88.977 186.937C88.9878 186.907 89.0013 186.876 89.019 186.849C89.3279 186.351 89.5769 185.861 89.7593 185.392C89.8439 185.171 90.0933 185.062 90.3137 185.148C90.535 185.233 90.6446 185.482 90.5584 185.702C90.3576 186.221 90.0844 186.759 89.7477 187.301C89.6288 187.492 89.3841 187.559 89.1867 187.456C89.1994 187.485 89.2125 187.516 89.2252 187.545C89.3199 187.762 89.221 188.015 89.004 188.109C88.9478 188.133 88.8901 188.145 88.8324 188.145ZM113.639 187.852C113.505 187.852 113.372 187.788 113.288 187.67C112.921 187.148 112.616 186.628 112.381 186.126C112.281 185.912 112.373 185.656 112.589 185.557C112.803 185.456 113.058 185.549 113.158 185.764C113.371 186.221 113.651 186.696 113.99 187.177C114.126 187.37 114.08 187.638 113.886 187.775C113.811 187.827 113.724 187.852 113.639 187.852ZM69.6572 186.711C69.5033 186.711 69.3548 186.629 69.2778 186.483L68.4821 184.958C68.3725 184.748 68.4544 184.489 68.6637 184.379C68.873 184.272 69.1335 184.351 69.2424 184.561L70.0362 186.083C70.1466 186.293 70.0662 186.552 69.8569 186.662C69.793 186.695 69.7253 186.711 69.6572 186.711ZM114.898 186.192C114.691 186.192 114.508 186.04 114.475 185.828C114.387 185.255 114.232 184.734 114.024 184.319C113.919 184.107 114.004 183.85 114.216 183.743C114.428 183.638 114.685 183.723 114.791 183.935C115.038 184.429 115.222 185.039 115.323 185.699C115.359 185.932 115.198 186.151 114.963 186.187C114.942 186.19 114.92 186.192 114.898 186.192ZM134.726 186.138C134.697 186.138 134.669 186.135 134.641 186.129C134.409 186.083 134.258 185.857 134.304 185.625C134.353 185.382 134.377 185.14 134.377 184.903C134.377 184.441 134.281 184.157 134.28 184.155C134.202 183.932 134.319 183.688 134.541 183.609C134.759 183.529 135.005 183.641 135.087 183.863C135.102 183.905 135.235 184.288 135.235 184.903C135.235 185.196 135.205 185.496 135.145 185.793C135.105 185.997 134.926 186.138 134.726 186.138ZM87.9513 184.845C87.725 184.845 87.5357 184.668 87.5234 184.44C87.5169 184.327 87.5134 184.217 87.5134 184.11C87.5134 183.444 87.6388 182.91 87.887 182.522C88.0136 182.322 88.2798 182.265 88.4792 182.392C88.6785 182.52 88.737 182.785 88.6088 182.985C88.5007 183.155 88.371 183.488 88.371 184.11C88.371 184.201 88.3745 184.295 88.3795 184.391C88.393 184.628 88.2121 184.83 87.9759 184.843C87.967 184.845 87.959 184.845 87.9513 184.845ZM112.297 184.735C112.071 184.735 111.882 184.559 111.869 184.332C111.865 184.281 111.864 184.232 111.864 184.184C111.864 183.517 112.134 183.015 112.625 182.769C112.8 182.683 112.981 182.636 113.166 182.634C113.4 182.595 113.597 182.819 113.601 183.057C113.605 183.293 113.415 183.488 113.178 183.491C113.123 183.492 113.068 183.507 113.008 183.537C112.937 183.572 112.722 183.68 112.722 184.184L112.725 184.28C112.739 184.517 112.559 184.72 112.323 184.734C112.313 184.735 112.305 184.735 112.297 184.735ZM90.5196 184.309C90.2833 184.309 90.0909 184.117 90.0909 183.881C90.0902 183.346 89.9201 182.992 89.5842 182.829C89.3714 182.726 89.2825 182.469 89.3864 182.256C89.4903 182.042 89.75 181.957 89.9593 182.058C90.5958 182.368 90.9474 183.015 90.9482 183.879C90.9482 184.116 90.7566 184.309 90.5203 184.309C90.5196 184.309 90.5196 184.309 90.5196 184.309ZM68.0654 183.666C67.9123 183.666 67.7638 183.584 67.6868 183.439C67.4179 182.935 67.1443 182.435 66.8646 181.945C66.7464 181.74 66.8176 181.478 67.0239 181.361C67.2266 181.243 67.491 181.312 67.6083 181.52C67.893 182.017 68.1701 182.523 68.444 183.036C68.5552 183.244 68.4767 183.505 68.2674 183.616C68.2028 183.65 68.1339 183.666 68.0654 183.666ZM66.3471 180.693C66.2062 180.693 66.0681 180.624 65.9861 180.497C65.6602 179.989 65.3463 179.538 65.0246 179.116C64.8815 178.927 64.9184 178.659 65.1066 178.514C65.2959 178.372 65.5637 178.408 65.708 178.596C66.0419 179.037 66.3694 179.507 66.708 180.033C66.8361 180.232 66.7784 180.497 66.5791 180.626C66.5067 180.672 66.4263 180.693 66.3471 180.693ZM64.2559 177.979C64.1435 177.979 64.0315 177.935 63.9469 177.848C63.5467 177.431 63.1339 177.065 62.7218 176.758C62.5317 176.616 62.4913 176.349 62.6329 176.158C62.7745 175.967 63.0458 175.93 63.2324 176.07C63.6829 176.405 64.1308 176.802 64.5648 177.253C64.7291 177.424 64.7241 177.695 64.5533 177.859C64.4702 177.939 64.3628 177.979 64.2559 177.979ZM54.5036 176.293C54.337 176.293 54.1788 176.195 54.1092 176.031C54.0161 175.814 54.1177 175.562 54.3362 175.47C54.4578 175.418 54.5782 175.369 54.6979 175.322C54.9141 175.233 55.1669 175.342 55.2539 175.563C55.3408 175.783 55.2331 176.032 55.0126 176.119C54.8995 176.164 54.7856 176.21 54.671 176.258C54.6167 176.282 54.5598 176.293 54.5036 176.293ZM61.5106 175.971C61.4509 175.971 61.3917 175.96 61.3347 175.933C60.843 175.712 60.3297 175.553 59.8099 175.46C59.5771 175.418 59.4213 175.196 59.4632 174.963C59.5044 174.73 59.726 174.577 59.9607 174.616C60.5502 174.721 61.1308 174.901 61.6868 175.151C61.903 175.248 61.9992 175.502 61.9019 175.718C61.8307 175.877 61.6741 175.971 61.5106 175.971ZM56.4886 175.624C56.2951 175.624 56.12 175.493 56.0723 175.297C56.0161 175.066 56.1569 174.835 56.387 174.779C56.9907 174.632 57.5863 174.542 58.1573 174.51C58.4263 174.49 58.596 174.679 58.6086 174.915C58.6221 175.151 58.4405 175.354 58.2043 175.366C57.686 175.395 57.1423 175.477 56.5898 175.612C56.5555 175.62 56.5221 175.624 56.4886 175.624Z" fill="#241726"/>
<path d="M187.458 69.82C187.221 69.82 187.029 69.6284 187.029 69.3913C187.029 69.289 187.082 69.1713 187.149 69.0932L187.414 68.7757C187.564 68.5941 187.832 68.5664 188.017 68.7161C188.2 68.8661 188.227 69.1366 188.077 69.3198C187.934 69.4941 187.838 69.606 187.801 69.6499C187.722 69.753 187.598 69.82 187.458 69.82ZM188.798 68.1178C188.709 68.1178 188.619 68.0901 188.543 68.0339C188.352 67.8931 188.312 67.6245 188.452 67.4344C188.751 67.03 189.082 66.5625 189.43 66.0443C189.561 65.8484 189.827 65.7946 190.024 65.9269C190.221 66.0585 190.274 66.3248 190.142 66.5214C189.787 67.0516 189.448 67.5287 189.142 67.9435C189.059 68.0574 188.929 68.1178 188.798 68.1178ZM190.709 65.262C190.633 65.262 190.557 65.242 190.487 65.2009C190.285 65.0785 190.22 64.8149 190.341 64.6122C190.622 64.1451 190.905 63.6526 191.178 63.1401C191.292 62.93 191.552 62.8526 191.759 62.9635C191.968 63.0758 192.047 63.3351 191.935 63.5437C191.654 64.0697 191.364 64.5752 191.076 65.0543C190.996 65.1882 190.854 65.262 190.709 65.262ZM192.32 62.2328C192.26 62.2328 192.2 62.2201 192.142 62.1943C191.926 62.0954 191.832 61.8411 191.93 61.6256C192.169 61.1023 192.386 60.5787 192.574 60.0696C192.656 59.8484 192.903 59.7337 193.125 59.8168C193.347 59.8988 193.461 60.1458 193.378 60.3678C193.182 60.8961 192.958 61.4398 192.71 61.9823C192.638 62.1401 192.482 62.2328 192.32 62.2328ZM193.499 59.0131C193.462 59.0131 193.425 59.0081 193.389 58.9988C193.159 58.9369 193.023 58.7026 193.085 58.4736C193.234 57.9169 193.349 57.369 193.424 56.8449C193.457 56.6094 193.686 56.4498 193.909 56.4813C194.144 56.5155 194.306 56.7333 194.273 56.9669C194.192 57.5248 194.071 58.1058 193.913 58.6945C193.862 58.8865 193.688 59.0131 193.499 59.0131ZM193.968 55.6237C193.733 55.6237 193.541 55.4336 193.539 55.1981C193.535 54.6364 193.481 54.0911 193.376 53.5775C193.329 53.3455 193.479 53.1185 193.711 53.0715C193.947 53.0238 194.17 53.1739 194.217 53.4066C194.332 53.9746 194.393 54.5748 194.397 55.1912C194.399 55.4282 194.208 55.6217 193.972 55.6233C193.97 55.6237 193.969 55.6237 193.968 55.6237ZM193.276 52.2916C193.113 52.2916 192.957 52.1977 192.885 52.0388C192.667 51.5532 192.388 51.0873 192.057 50.6552C191.913 50.4674 191.948 50.1989 192.137 50.0546C192.322 49.9087 192.593 49.9449 192.737 50.1342C193.108 50.6175 193.421 51.14 193.668 51.6867C193.765 51.903 193.668 52.1565 193.452 52.2535C193.395 52.28 193.336 52.2916 193.276 52.2916ZM181.071 51.0003C180.911 51.0003 180.757 50.9091 180.684 50.7541C180.582 50.5398 180.674 50.2843 180.889 50.1838C181.274 50.003 181.733 49.6921 182.217 49.287C182.398 49.133 182.669 49.1573 182.821 49.3397C182.973 49.5213 182.95 49.791 182.768 49.9434C182.22 50.4032 181.711 50.7448 181.254 50.9591C181.195 50.9869 181.133 51.0003 181.071 51.0003ZM179.736 50.5917C179.517 50.5917 179.334 50.4509 179.317 50.2281C179.313 50.1862 179.312 50.1419 179.312 50.0965C179.312 49.5063 179.394 48.9284 179.558 48.3774C179.626 48.1511 179.862 48.0242 180.091 48.0884C180.318 48.1561 180.447 48.3951 180.38 48.6217C180.24 49.093 180.169 49.589 180.169 50.0965C180.188 50.3327 180.013 50.5705 179.777 50.5898C179.763 50.5909 179.749 50.5917 179.736 50.5917ZM191.219 49.5825C191.118 49.5825 191.017 49.5474 190.935 49.4751C190.498 49.0892 190.061 48.7283 189.635 48.4024C189.447 48.2585 189.412 47.9895 189.556 47.801C189.699 47.6125 189.971 47.5774 190.158 47.7221C190.598 48.0596 191.05 48.4332 191.502 48.8318C191.68 48.9884 191.697 49.2596 191.54 49.4374C191.456 49.5332 191.338 49.5825 191.219 49.5825ZM183.73 48.8549C183.626 48.8549 183.521 48.8172 183.439 48.7402C183.265 48.5794 183.255 48.3081 183.416 48.1346C183.784 47.7387 184.146 47.3062 184.491 46.8518C184.634 46.6632 184.903 46.6275 185.092 46.7698C185.28 46.913 185.317 47.1827 185.174 47.3712C184.811 47.8475 184.431 48.3016 184.044 48.7179C183.96 48.8087 183.845 48.8549 183.73 48.8549ZM188.493 47.5066C188.414 47.5066 188.335 47.4847 188.264 47.4405C187.767 47.1265 187.278 46.856 186.811 46.6382C186.597 46.5378 186.504 46.2823 186.604 46.068C186.705 45.8537 186.961 45.7613 187.175 45.861C187.674 46.0946 188.194 46.382 188.722 46.7152C188.922 46.8418 188.982 47.1073 188.855 47.3073C188.773 47.4362 188.634 47.5066 188.493 47.5066ZM180.732 47.4051C180.641 47.4051 180.549 47.3758 180.471 47.3162C180.283 47.1723 180.248 46.9026 180.392 46.7148C180.792 46.1946 181.281 45.7879 181.844 45.5039C182.055 45.3977 182.313 45.482 182.42 45.6948C182.526 45.9068 182.441 46.1646 182.23 46.2708C181.782 46.4951 181.392 46.8202 181.072 47.2373C180.988 47.3474 180.861 47.4051 180.732 47.4051ZM185.806 46.128C185.729 46.128 185.65 46.1073 185.579 46.0626C185.574 46.0592 185.569 46.0561 185.562 46.0518C185.477 46.0919 185.381 46.1038 185.279 46.0776C184.724 45.9368 184.191 45.881 183.707 45.8991C183.477 45.9233 183.269 45.7275 183.259 45.4912C183.248 45.2542 183.43 45.0541 183.667 45.0434C184.239 45.0122 184.853 45.0853 185.49 45.2469C185.516 45.2535 185.541 45.2619 185.565 45.2738C185.816 44.8602 186.05 44.4362 186.263 44.0111C186.369 43.799 186.626 43.7129 186.838 43.8194C187.05 43.9256 187.135 44.183 187.03 44.3947C186.77 44.9129 186.481 45.4281 186.17 45.9264C186.088 46.0568 185.949 46.128 185.806 46.128ZM187.336 43.0603C187.286 43.0603 187.234 43.0511 187.185 43.0326C186.963 42.9487 186.851 42.7009 186.935 42.4801C187.135 41.9518 187.304 41.4173 187.437 40.8921C187.494 40.6628 187.725 40.5193 187.957 40.5816C188.186 40.6393 188.326 40.8721 188.267 41.1018C188.128 41.6586 187.949 42.225 187.737 42.7833C187.672 42.9549 187.51 43.0603 187.336 43.0603ZM188.166 39.7402C188.148 39.7402 188.132 39.7394 188.114 39.7367C187.879 39.709 187.711 39.4954 187.74 39.2604C187.794 38.8048 187.822 38.3458 187.822 37.8944L187.818 37.6105C187.812 37.3735 187.998 37.1768 188.235 37.1707C188.467 37.1715 188.669 37.3523 188.675 37.5885L188.679 37.891C188.679 38.3792 188.649 38.8733 188.591 39.3623C188.565 39.5801 188.38 39.7402 188.166 39.7402ZM164.004 37.587C163.657 37.587 163.338 37.5216 163.054 37.3927C162.838 37.2957 162.742 37.041 162.841 36.8259C162.939 36.6097 163.196 36.517 163.407 36.6124C163.763 36.7732 164.246 36.7675 164.773 36.5966C164.997 36.5247 165.241 36.647 165.313 36.8721C165.386 37.0972 165.263 37.3384 165.038 37.4123C164.681 37.5285 164.333 37.587 164.004 37.587ZM166.399 36.6055C166.272 36.6055 166.148 36.5501 166.063 36.4431C165.916 36.258 165.946 35.9883 166.133 35.8409C166.542 35.515 166.912 35.1276 167.233 34.687C167.372 34.4943 167.641 34.4542 167.832 34.5924C168.023 34.7313 168.065 35.0002 167.926 35.1911C167.56 35.6943 167.136 36.1391 166.665 36.5127C166.586 36.5755 166.492 36.6055 166.399 36.6055ZM188.07 36.3242C187.867 36.3242 187.687 36.1791 187.649 35.9725C187.551 35.4365 187.407 34.9013 187.223 34.3838C187.143 34.1603 187.26 33.9148 187.483 33.8363C187.707 33.7517 187.952 33.8732 188.03 34.096C188.23 34.657 188.385 35.2365 188.492 35.8186C188.535 36.0514 188.381 36.275 188.147 36.3177C188.122 36.3215 188.096 36.3242 188.07 36.3242ZM162.245 36.1057C162.05 36.1057 161.874 35.9725 161.828 35.7748C161.781 35.5754 161.748 35.3569 161.732 35.1183C161.726 35.0152 161.722 34.9133 161.722 34.8102C161.722 34.5147 161.751 34.208 161.807 33.8983C161.849 33.6639 162.082 33.5146 162.305 33.5524C162.539 33.5951 162.693 33.8178 162.651 34.0506C162.604 34.3103 162.58 34.5658 162.58 34.8102C162.58 34.8948 162.583 34.9783 162.588 35.0629C162.601 35.2496 162.625 35.4215 162.662 35.5789C162.717 35.8094 162.573 36.0402 162.343 36.0941C162.31 36.1022 162.277 36.1057 162.245 36.1057ZM168.395 33.8636C168.344 33.8636 168.292 33.8544 168.242 33.8352C168.021 33.7505 167.91 33.5027 167.995 33.2815C168.186 32.7824 168.305 32.2615 168.352 31.7332C168.372 31.4969 168.586 31.333 168.816 31.343C169.052 31.363 169.227 31.5708 169.206 31.8071C169.153 32.415 169.015 33.0137 168.796 33.5881C168.73 33.759 168.568 33.8636 168.395 33.8636ZM186.929 33.1033C186.776 33.1033 186.629 33.0221 186.552 32.8782C186.296 32.4057 185.997 31.9371 185.663 31.4865C185.521 31.2965 185.562 31.0275 185.752 30.8871C185.943 30.7474 186.211 30.7867 186.351 30.976C186.71 31.4592 187.031 31.9625 187.306 32.4715C187.419 32.6793 187.341 32.9398 187.132 33.0518C187.068 33.0864 186.998 33.1033 186.929 33.1033ZM162.787 32.7874C162.721 32.7874 162.656 32.7732 162.594 32.742C162.383 32.6358 162.298 32.3777 162.403 32.166C162.658 31.6601 162.983 31.151 163.371 30.6528C163.517 30.4661 163.785 30.4327 163.973 30.5781C164.16 30.7239 164.193 30.9937 164.048 31.1803C163.694 31.6331 163.399 32.0949 163.17 32.5512C163.095 32.7012 162.943 32.7874 162.787 32.7874ZM168.688 30.4923C168.486 30.4923 168.307 30.3492 168.268 30.1441C168.171 29.6331 168.005 29.1183 167.774 28.6143C167.676 28.398 167.771 28.1445 167.986 28.0456C168.203 27.9494 168.456 28.0429 168.555 28.2576C168.814 28.8255 169.001 29.4057 169.11 29.9837C169.155 30.2164 169.001 30.4408 168.769 30.4854C168.742 30.4896 168.715 30.4923 168.688 30.4923ZM184.904 30.3499C184.79 30.3499 184.676 30.3045 184.592 30.2153C184.204 29.8051 183.798 29.4188 183.384 29.0679C183.203 28.9148 183.181 28.6443 183.333 28.4634C183.488 28.2826 183.759 28.2614 183.938 28.413C184.375 28.7847 184.806 29.1933 185.215 29.6274C185.377 29.799 185.37 30.0702 185.197 30.233C185.115 30.3111 185.009 30.3499 184.904 30.3499ZM164.868 30.0825C164.754 30.0825 164.64 30.0371 164.555 29.9479C164.393 29.7755 164.402 29.5038 164.574 29.3415C164.989 28.9506 165.447 28.5712 165.936 28.2141C166.125 28.0744 166.395 28.1152 166.534 28.3072C166.674 28.4981 166.633 28.7663 166.441 28.9059C165.981 29.2426 165.551 29.5985 165.161 29.9659C165.079 30.0441 164.973 30.0825 164.868 30.0825ZM182.289 28.1406C182.208 28.1406 182.127 28.1179 182.054 28.0702C181.59 27.7655 181.105 27.4908 180.612 27.253C180.399 27.1499 180.309 26.8936 180.412 26.6801C180.515 26.4673 180.772 26.3769 180.985 26.4807C181.511 26.7343 182.029 27.0283 182.524 27.3534C182.722 27.4831 182.777 27.7493 182.647 27.9471C182.566 28.0729 182.428 28.1406 182.289 28.1406ZM167.63 28.061C167.482 28.061 167.336 27.9833 167.258 27.844C167.173 27.6951 167.187 27.5165 167.28 27.3849C167.153 27.3792 167.032 27.3172 166.952 27.2056C166.649 26.7812 166.293 26.3557 165.894 25.9421C165.729 25.7712 165.734 25.5 165.904 25.3357C166.075 25.1714 166.346 25.1756 166.51 25.3457C166.94 25.7905 167.323 26.2483 167.65 26.7081C167.735 26.8263 167.75 26.9729 167.706 27.1002C168.122 26.8751 168.554 26.6647 168.995 26.473C169.211 26.3819 169.465 26.4781 169.559 26.6958C169.653 26.9128 169.554 27.1656 169.337 27.2603C168.822 27.4831 168.32 27.7343 167.842 28.0048C167.776 28.0433 167.702 28.061 167.63 28.061ZM170.772 26.7001C170.589 26.7001 170.42 26.5819 170.363 26.3976C170.293 26.1714 170.42 25.9313 170.646 25.8617C171.208 25.6874 171.783 25.5442 172.354 25.4338C172.581 25.3938 172.811 25.54 172.856 25.7739C172.901 26.0067 172.748 26.231 172.516 26.2764C171.975 26.3803 171.432 26.5169 170.899 26.6808C170.857 26.6943 170.814 26.7001 170.772 26.7001ZM179.209 26.6566C179.165 26.6566 179.12 26.65 179.076 26.6358C178.554 26.465 178.013 26.3284 177.471 26.2295C177.238 26.1868 177.084 25.9632 177.126 25.7305C177.168 25.4969 177.395 25.3468 177.625 25.3853C178.205 25.4915 178.783 25.6373 179.342 25.8201C179.567 25.894 179.69 26.136 179.617 26.3611C179.557 26.5419 179.39 26.6566 179.209 26.6566ZM174.131 26.0594C173.909 26.0594 173.721 25.8871 173.704 25.6616C173.687 25.4253 173.865 25.2203 174.101 25.2026C174.685 25.1598 175.275 25.1506 175.868 25.1825C176.104 25.1941 176.286 25.3953 176.274 25.6323C176.263 25.8678 176.091 26.0621 175.824 26.0386C175.267 26.0117 174.713 26.0194 174.163 26.0587C174.153 26.0594 174.143 26.0594 174.131 26.0594ZM164.942 24.9113C164.846 24.9113 164.749 24.8793 164.669 24.8132C164.256 24.4723 163.805 24.1333 163.328 23.8059C163.133 23.672 163.084 23.4045 163.218 23.2095C163.352 23.0152 163.618 22.9648 163.814 23.099C164.312 23.4407 164.783 23.7951 165.215 24.1518C165.398 24.3026 165.424 24.5731 165.273 24.7555C165.189 24.8586 165.066 24.9113 164.942 24.9113ZM144.581 24.3703C144.469 24.3703 144.359 24.3268 144.275 24.2414C144.109 24.0721 144.112 23.8016 144.28 23.6358C144.301 23.6158 144.792 23.1367 145.685 22.5227C145.882 22.3888 146.149 22.4388 146.282 22.6331C146.416 22.8282 146.366 23.0952 146.171 23.2295C145.345 23.7974 144.886 24.2429 144.881 24.2479C144.798 24.3295 144.689 24.3703 144.581 24.3703ZM162.122 22.9644C162.049 22.9644 161.974 22.9459 161.907 22.9067C161.416 22.6227 160.916 22.3622 160.421 22.1321C160.207 22.0325 160.114 21.7778 160.213 21.5627C160.313 21.3476 160.568 21.2529 160.783 21.3549C161.3 21.5954 161.824 21.8682 162.336 22.1648C162.541 22.283 162.612 22.545 162.493 22.7501C162.413 22.8874 162.269 22.9644 162.122 22.9644ZM147.394 22.4149C147.242 22.4149 147.094 22.333 147.016 22.1879C146.905 21.9794 146.983 21.7197 147.192 21.6077C147.71 21.3314 148.249 21.0817 148.792 20.8666C149.012 20.7777 149.262 20.8866 149.349 21.1071C149.436 21.3272 149.328 21.5769 149.108 21.6639C148.594 21.8674 148.085 22.1036 147.596 22.3649C147.532 22.3991 147.463 22.4149 147.394 22.4149ZM159.016 21.5273C158.969 21.5273 158.921 21.5196 158.874 21.503C158.345 21.3187 157.807 21.1621 157.272 21.039C157.041 20.9855 156.898 20.755 156.951 20.525C157.004 20.2937 157.234 20.1513 157.465 20.2033C158.029 20.3341 158.598 20.4988 159.157 20.6939C159.381 20.7716 159.499 21.0163 159.42 21.2399C159.359 21.4168 159.193 21.5273 159.016 21.5273ZM150.578 21.1556C150.388 21.1556 150.215 21.029 150.164 20.8374C150.103 20.6088 150.239 20.3734 150.468 20.3122C151.036 20.1606 151.619 20.0432 152.199 19.962C152.428 19.9328 152.65 20.0917 152.683 20.3272C152.716 20.5615 152.552 20.7785 152.318 20.8112C151.772 20.8874 151.223 20.999 150.689 21.1414C150.652 21.1514 150.615 21.1556 150.578 21.1556ZM155.679 20.7635C155.663 20.7635 155.648 20.7627 155.632 20.7608C155.146 20.7081 154.653 20.6812 154.169 20.6812L153.972 20.6827C153.97 20.6827 153.968 20.6827 153.967 20.6827C153.732 20.6827 153.541 20.4942 153.538 20.2591C153.535 20.0228 153.725 19.8285 153.962 19.8255L154.169 19.8239C154.685 19.8239 155.208 19.8524 155.725 19.9086C155.96 19.9343 156.131 20.1456 156.105 20.3811C156.081 20.6011 155.895 20.7635 155.679 20.7635Z" fill="#241726"/>
</svg>
