<svg width="512" height="498" viewBox="0 0 512 498" fill="none" xmlns="http://www.w3.org/2000/svg">
<path d="M263.466 497.522C216.125 497.522 170.082 484.157 130.309 458.87C91.607 434.26 60.484 399.537 40.313 358.448C23.489 324.26 14.955 287.452 14.955 249.058C14.955 232.387 16.611 215.812 19.887 199.59C7.849 192.021 0 178.594 0 163.856V141.926C0 118.676 18.918 99.758 42.168 99.758H64.764C81.847 77.025 102.471 57.56 126.165 41.829C166.894 14.779 214.375 0.478027 263.465 0.478027C291.433 0.478027 318.84 5.08603 344.928 14.17C354.781 17.581 364.626 21.736 374.23 26.526L417.336 24.611C417.544 24.602 417.752 24.597 417.961 24.597C421.466 24.597 424.852 25.908 427.448 28.283C430.2 30.799 431.838 34.307 432.003 38.031L433.316 67.63C483.398 114.543 512 180.296 512 248.988C512 276.62 507.504 303.732 498.635 329.57C486.309 365.584 465.407 398.834 438.199 425.716C391.407 472.018 329.349 497.522 263.466 497.522Z" fill="white"/>
<path d="M498.742 248.989C498.742 275.602 494.314 301.183 486.138 325.009L429.118 415.718C386.762 457.628 328.524 483.468 264.264 483.468C171.846 483.468 91.89 429.985 53.728 352.255L29.809 249.059V248.989C29.809 167.394 71.509 95.52 134.737 53.539C134.737 53.539 180.301 58.946 228.185 58.946C255.102 58.946 341.103 27.442 341.103 27.442C432.866 59.232 498.742 146.427 498.742 248.989Z" fill="#8F8FEF"/>
<path d="M115.34 296.569C115.34 327.492 90.273 352.535 59.373 352.535C57.475 352.535 55.578 352.441 53.727 352.254C38.406 321.12 29.808 286.097 29.808 249.059C38.382 243.718 48.503 240.626 59.373 240.626C90.273 240.626 115.34 265.669 115.34 296.569Z" fill="#F05D6A"/>
<path d="M486.138 325.009C474.284 359.634 454.559 390.581 429.118 415.718C405.41 409.229 388.004 387.535 388.004 361.766C388.004 330.866 413.071 305.823 443.971 305.823C460.814 305.822 475.924 313.249 486.138 325.009Z" fill="#FFD2A7"/>
<path d="M341.104 27.443C336.84 82.168 291.065 125.25 235.239 125.25C188.643 125.25 149.075 95.264 134.738 53.54C171.846 28.895 216.38 14.535 264.265 14.535C291.181 14.534 317.021 19.056 341.104 27.443Z" fill="#FF899A"/>
<path d="M425.968 365.825H95.003V160.094C95.003 155.676 98.585 152.094 103.003 152.094H417.968C422.386 152.094 425.968 155.676 425.968 160.094V365.825V365.825Z" fill="#401A49"/>
<path d="M409.42 171.034H108.561V368.417H409.42V171.034Z" fill="#FFF5EE"/>
<path d="M82.613 387.818L67.821 369.762C66.193 367.775 68.561 365.437 72.2 365.437H450.571C454.399 365.437 456.746 367.997 454.745 369.988L436.818 387.817C436.819 387.818 83.447 388.327 82.613 387.818Z" fill="#401A49"/>
<path d="M441.298 384.291H81.259C80.995 384.291 80.781 384.076 80.781 383.813C80.781 383.55 80.995 383.335 81.259 383.335H441.297C441.561 383.335 441.775 383.55 441.775 383.813C441.775 384.076 441.562 384.291 441.298 384.291Z" fill="#FFF5EE"/>
<path d="M393.865 183.599H120.522V357.051H393.865V183.599Z" fill="white"/>
<path d="M393.865 183.599H120.522V206.323H393.865V183.599Z" fill="#8F8FEF"/>
<path d="M363.563 195.757C363.563 198.29 361.51 200.343 358.977 200.343C356.444 200.343 354.391 198.29 354.391 195.757C354.391 193.224 356.444 191.171 358.977 191.171C361.51 191.171 363.563 193.224 363.563 195.757Z" fill="#F05D6A"/>
<path d="M342.629 195.757C342.629 198.29 340.576 200.343 338.043 200.343C335.51 200.343 333.457 198.29 333.457 195.757C333.457 193.224 335.51 191.171 338.043 191.171C340.576 191.171 342.629 193.224 342.629 195.757Z" fill="#FF899A"/>
<path d="M384.498 195.757C384.498 198.29 382.445 200.343 379.912 200.343C377.379 200.343 375.326 198.29 375.326 195.757C375.326 193.224 377.379 191.171 379.912 191.171C382.445 191.171 384.498 193.224 384.498 195.757Z" fill="#FFA766"/>
<path d="M376.417 242.505H136.978V219.19H376.417V242.505V242.505ZM137.563 241.919H375.831V219.776H137.563V241.919Z" fill="#FFA766"/>
<path d="M376.417 348.174H136.58V251.09H376.417V348.174V348.174ZM137.165 347.588H375.831V251.676H137.165V347.588Z" fill="#FFA766"/>
<path d="M159.014 338.117L158.595 337.71L190.256 305.245L190.454 305.361L217.361 321.19L254.499 279.261L254.719 279.495C265.395 290.912 281.655 307.935 283.507 308.91C286.788 305.799 335.628 272.354 345.653 265.497L345.985 265.98C329.059 277.555 284.906 307.909 283.87 309.341C283.853 309.411 283.759 309.495 283.64 309.521C283.632 309.523 283.624 309.524 283.614 309.524C282.169 309.525 262.987 289.193 254.511 280.13L217.48 321.94L217.272 321.817L190.355 305.982L159.014 338.117ZM283.432 308.985C283.391 309.011 283.355 309.053 283.336 309.11C283.345 309.084 283.377 309.043 283.432 308.985Z" fill="#FFA766"/>
<path d="M162.393 338.112C162.393 340.204 160.697 341.9 158.605 341.9C156.513 341.9 154.817 340.204 154.817 338.112C154.817 336.02 156.513 334.324 158.605 334.324C160.697 334.324 162.393 336.02 162.393 338.112Z" fill="#8F8FEF"/>
<path d="M254.305 283.682C256.397 283.682 258.093 281.986 258.093 279.894C258.093 277.802 256.397 276.106 254.305 276.106C252.213 276.106 250.517 277.802 250.517 279.894C250.517 281.986 252.213 283.682 254.305 283.682Z" fill="#FF899A"/>
<path d="M348.81 266.336C348.81 268.428 347.114 270.124 345.022 270.124C342.93 270.124 341.234 268.428 341.234 266.336C341.234 264.244 342.93 262.548 345.022 262.548C347.113 262.548 348.81 264.244 348.81 266.336Z" fill="#8F8FEF"/>
<path d="M366.519 328.391H356.322V318.192H366.519V328.391ZM356.649 328.062H366.191V318.522H356.649V328.062Z" fill="#FFA766"/>
<path d="M366.519 315.232H356.322V305.034H366.519V315.232ZM356.649 314.903H366.191V305.362H356.649V314.903Z" fill="#FFA766"/>
<path d="M366.519 340.768H356.322V330.569H366.519V340.768ZM356.649 340.439H366.191V330.899H356.649V340.439Z" fill="#FFA766"/>
<path d="M303.353 49.5383L212.414 33.2701L195.681 126.807L286.62 143.075L303.353 49.5383Z" fill="#FFF5EE"/>
<path d="M261.347 56.6561C261.347 59.8181 258.783 62.3821 255.621 62.3821C252.458 62.3821 249.895 59.8181 249.895 56.6561C249.895 53.4931 252.459 50.9301 255.621 50.9301C258.783 50.9301 261.347 53.4941 261.347 56.6561Z" fill="#401A49"/>
<path d="M218.624 72.588C217.553 72.49 216.425 72.41 215.067 72.286C214.321 72.217 214.033 71.437 214.095 70.769C214.177 69.863 214.676 69.618 215.813 69.721L224.989 70.563C225.609 70.62 226.357 70.965 226.266 71.968C226.197 72.714 225.621 73.288 224.976 73.24C224.733 73.219 224.512 73.128 224.258 73.105L221.293 72.833L220.067 85.8C220.035 86.168 220.083 86.509 220.046 86.923C219.984 87.589 219.728 88.342 218.52 88.232C217.12 88.104 217.273 87.052 217.351 86.223L218.624 72.588Z" fill="#401A49"/>
<path d="M234.885 75.098C239.209 75.496 241.73 78.998 241.364 82.986C240.964 87.356 237.42 89.952 233.558 89.598C229.683 89.243 226.683 86.047 227.084 81.678C227.45 77.687 230.932 74.736 234.885 75.098ZM233.774 87.124C236.222 87.351 238.432 85.87 238.72 82.743C238.956 80.155 237.499 77.843 234.648 77.582C231.809 77.321 229.976 79.332 229.741 81.92C229.473 84.841 231.015 86.873 233.774 87.124Z" fill="#401A49"/>
<path d="M260.389 77.4361C262.183 77.6011 263.862 78.4751 264.754 79.8911C264.827 79.0971 265.022 76.8531 265.244 74.0571L264.265 73.9681C263.922 73.9361 263.576 74.0201 263.197 73.9841C262.645 73.9341 262.062 73.3481 262.142 72.4741C262.215 71.6801 262.728 71.2751 263.348 71.3321C263.497 71.3461 263.716 71.3661 263.984 71.4601C264.997 71.5631 266.002 71.5991 267.175 71.6961C267.818 71.7531 268.166 72.2721 268.099 73.0091C268.071 73.2831 268.021 73.4641 267.939 73.6081C267.596 76.6031 266.857 84.3831 266.713 85.9601C266.576 87.4541 266.484 88.7331 266.48 89.4171L266.697 89.3091C267.035 89.1531 267.335 89.0321 267.685 89.0281C268.209 89.0191 268.84 89.4471 268.758 90.3551C268.699 91.0001 268.236 91.3501 267.854 91.4671C267.472 91.6071 267.12 91.7481 266.76 91.9021C266.218 92.1311 265.685 92.3821 265.314 92.3481C264.591 92.2821 264.211 91.4811 264.088 90.3001C262.757 91.4281 260.714 92.0891 258.737 91.9061C254.756 91.5421 252.443 88.1061 252.812 84.0701C253.194 79.9091 256.432 77.0741 260.389 77.4361ZM259.159 89.4531C261.181 89.6381 263.478 88.4811 264.151 86.3621C264.265 85.1081 264.275 84.8891 264.33 84.2801C264.049 82.0151 262.413 80.1391 260.239 79.9401C257.686 79.7041 255.638 81.4521 255.375 84.3051C255.155 86.7191 256.528 89.2111 259.159 89.4531Z" fill="#401A49"/>
<path d="M278.637 79.1101C282.965 79.5061 285.482 83.0081 285.116 86.9961C284.716 91.3651 281.172 93.9621 277.31 93.6101C273.435 93.2531 270.438 90.0571 270.838 85.6871C271.204 81.6981 274.683 78.7461 278.637 79.1101ZM277.525 91.1371C279.973 91.3611 282.185 89.8811 282.474 86.7541C282.71 84.1661 281.252 81.8541 278.399 81.5931C275.562 81.3321 273.73 83.3431 273.494 85.9301C273.226 88.8521 274.766 90.8831 277.525 91.1371Z" fill="#401A49"/>
<path d="M418.752 38.6458L326.465 42.7474L330.684 137.671L422.971 133.57L418.752 38.6458Z" fill="#FFF5EE"/>
<path d="M382.166 53.221C382.166 56.383 379.603 58.947 376.44 58.947C373.278 58.947 370.714 56.383 370.714 53.221C370.714 50.059 373.278 47.495 376.44 47.495C379.602 47.495 382.166 50.058 382.166 53.221Z" fill="#401A49"/>
<path d="M343.566 91.059C342.887 87.041 342.184 82.969 341.372 78.865C341.148 78.577 340.93 78.179 340.885 77.904C340.773 77.254 341.006 76.692 341.871 76.545C342.303 76.472 342.743 76.575 343.232 76.492C344.291 76.311 345.31 75.963 346.392 75.78C353.109 74.643 356.113 78.349 356.847 82.698C357.503 86.58 356.254 92.764 348.879 94.013C347.74 94.205 346.557 94.137 345.351 94.34C344.427 94.498 343.992 94.136 343.846 93.272C343.728 92.578 343.717 91.961 343.566 91.059ZM348.59 91.478C354.236 90.522 354.66 85.681 354.332 83.759C353.479 78.705 350.793 77.648 346.4 78.392C345.819 78.49 344.645 78.747 343.957 78.909L346.185 91.672C346.853 91.734 348.146 91.553 348.59 91.478Z" fill="#401A49"/>
<path d="M365.963 76.4729C370.243 75.7499 373.574 78.4909 374.245 82.4419C374.975 86.7679 372.216 90.1819 368.391 90.8289C364.554 91.4789 360.837 89.1589 360.105 84.8329C359.434 80.8809 362.046 77.1359 365.963 76.4729ZM367.965 88.3849C370.39 87.9749 372.147 85.9779 371.625 82.8829C371.19 80.3209 369.191 78.4559 366.365 78.9339C363.553 79.4099 362.3 81.8259 362.734 84.3879C363.224 87.2799 365.233 88.8469 367.965 88.3849Z" fill="#401A49"/>
<path d="M379.632 86.857C379.607 86.438 379.582 85.9489 379.481 85.3469C379.28 84.1619 379.099 83.1529 378.886 82.0409C378.87 81.9379 378.838 81.8259 377.93 77.0029C377.742 77.0719 377.484 77.1379 377.118 77.1999C376.571 77.2939 375.867 77.0719 375.716 76.1699C375.576 75.3509 375.984 74.8499 376.588 74.7469C376.828 74.7079 377.071 74.7589 377.32 74.7149C377.627 74.6649 377.945 74.6009 378.247 74.5139C378.572 74.4359 378.922 74.354 379.173 74.313C379.786 74.208 380.326 74.56 380.452 75.301C380.482 75.484 380.516 75.7449 380.532 75.9779C381.413 74.8109 382.815 73.6219 384.785 73.2899C388.633 72.6379 391.049 74.8799 391.795 79.2839C392.019 80.6159 391.919 82.3059 391.603 83.6829C391.926 83.5229 392.253 83.374 392.466 83.315C393.283 83.096 393.795 83.418 393.937 84.26C394.01 84.692 393.953 85.3239 393.232 85.7149L392.051 86.2069C390.617 86.9299 390.427 87.124 389.91 87.188C389.183 87.312 388.691 86.611 388.588 86.01C388.508 85.532 388.542 84.976 388.815 84.507C389.497 83.276 389.504 81.5209 389.199 79.7229C388.851 77.6639 387.639 75.337 385.065 75.772C383.278 76.074 381.775 77.5819 380.94 79.0139C381.043 79.6959 381.151 80.3909 381.267 81.0869C381.432 82.2669 381.619 83.4409 381.823 84.6379C381.88 84.9789 381.926 85.3359 382.029 85.7239L382.322 85.5819C382.473 85.5089 382.636 85.433 382.761 85.413C383.58 85.273 384.083 85.624 384.214 86.385C384.406 87.536 383.429 87.842 382.661 88.064C382.448 88.123 382.247 88.1809 382.119 88.2489C381.652 88.4709 381.341 88.6379 381.078 88.6809C380.179 88.8339 379.845 88.4479 379.719 87.7089C379.671 87.4329 379.644 87.133 379.632 86.857Z" fill="#401A49"/>
<path d="M402.707 82.508C405.087 82.105 406.226 80.952 406.475 80.417C406.695 79.914 407.138 79.429 407.537 79.362C408.29 79.234 408.816 79.648 408.942 80.398C408.99 80.682 408.898 81.178 408.407 81.8C407.343 83.186 405.648 84.525 403.111 84.955C398.599 85.719 395.795 82.212 395.273 79.119C394.514 74.63 397.108 71.206 401.171 70.517C404.097 70.023 406.648 71.467 407.636 73.979C407.975 74.183 408.199 74.624 408.27 75.034C408.384 75.707 407.934 76.237 407.27 76.526C404.337 77.819 401.365 78.871 398.293 80.152C399.266 82.316 401.193 82.764 402.707 82.508ZM405.393 74.992C404.631 73.67 403.169 72.709 401.506 72.99C398.921 73.427 397.53 75.442 397.74 78.076C400.199 77.042 402.782 76.102 405.393 74.992Z" fill="#401A49"/>
<path d="M191.863 191.969H26.854C20.254 191.969 14.854 186.569 14.854 179.969V125.813C14.854 119.213 20.254 113.813 26.854 113.813H191.863C198.463 113.813 203.863 119.213 203.863 125.813V179.969C203.863 186.569 198.463 191.969 191.863 191.969Z" fill="#FFA766"/>
<path d="M180.137 134.449H39.377C38.5 134.449 37.782 133.731 37.782 132.854C37.782 131.977 38.5 131.259 39.377 131.259H180.137C181.014 131.259 181.732 131.977 181.732 132.854C181.732 133.731 181.014 134.449 180.137 134.449Z" fill="white"/>
<path d="M180.137 146.81H39.377C38.5 146.81 37.782 146.092 37.782 145.215C37.782 144.338 38.5 143.62 39.377 143.62H180.137C181.014 143.62 181.732 144.338 181.732 145.215C181.732 146.092 181.014 146.81 180.137 146.81Z" fill="white"/>
<path d="M180.137 159.171H39.377C38.5 159.171 37.782 158.453 37.782 157.576C37.782 156.699 38.5 155.981 39.377 155.981H180.137C181.014 155.981 181.732 156.699 181.732 157.576C181.732 158.454 181.014 159.171 180.137 159.171Z" fill="white"/>
<path d="M136.273 171.533H38.381C38.051 171.533 37.782 171.263 37.782 170.934V168.544C37.782 168.215 38.052 167.945 38.381 167.945H136.273C136.603 167.945 136.872 168.215 136.872 168.544V170.935C136.872 171.263 136.603 171.533 136.273 171.533Z" fill="white"/>
<path d="M118.928 266.324H67.502V186.187H68.673V265.153H118.928V266.324Z" fill="#FFA766"/>
<path d="M124.112 265.838C124.112 269.637 121.032 272.717 117.233 272.717C113.434 272.717 110.355 269.637 110.355 265.838C110.355 262.039 113.434 258.959 117.233 258.959C121.033 258.959 124.112 262.039 124.112 265.838Z" fill="#FFA766"/>
<path d="M346.417 369.178H177.146V461.043H346.417V369.178Z" fill="#FF899A"/>
<path d="M295.157 377.751L314.799 339.426L316.715 378.23L295.157 377.751Z" fill="#FF899A"/>
<path d="M253.142 411.515C251.981 403.031 247.615 395.514 240.789 390.319C232.526 384.018 221.638 382.112 211.717 385.262C211.551 385.317 211.441 385.511 211.496 385.704L218.073 406.485L220.892 415.411L189.913 411.846C189.747 411.846 189.554 411.957 189.526 412.15C188.255 423.314 193.008 434.479 201.934 441.305C207.571 445.616 214.314 447.882 221.306 447.882C222.743 447.882 224.208 447.771 225.645 447.578C233.3 446.528 240.208 442.853 245.293 437.132C245.846 436.524 246.371 435.889 246.868 435.225C252.037 428.427 254.275 419.998 253.142 411.515ZM246.316 434.811C245.902 435.364 245.46 435.916 244.99 436.441C239.988 442.162 233.162 445.837 225.563 446.887C217.245 448.02 209.038 445.837 202.377 440.752C193.7 434.147 189.057 423.397 190.19 412.564L221.334 416.156C221.445 416.156 221.583 416.128 221.638 416.018C221.721 415.935 221.748 415.825 221.721 415.714L218.958 406.981L212.27 385.813C215.255 384.901 218.322 384.459 221.362 384.459C228.16 384.459 234.848 386.67 240.375 390.87C247.035 395.955 251.319 403.306 252.451 411.624C253.557 419.915 251.374 428.151 246.316 434.811Z" fill="#401A49"/>
<path d="M209.66 383.66L219.211 414.025L187.463 410.236C188.116 404.734 190.227 399.328 193.862 394.615C198.035 389.203 203.592 385.51 209.66 383.66Z" fill="#401A49"/>
<path d="M335.717 391.008H264.496V395.177H335.717V391.008Z" fill="#401A49"/>
<path d="M335.717 407.336H264.496V411.505H335.717V407.336Z" fill="#401A49"/>
<path d="M335.717 416.717H264.496V420.886H335.717V416.717Z" fill="#401A49"/>
<path d="M335.717 425.75H264.496V429.919H335.717V425.75Z" fill="#401A49"/>
<path d="M311.919 434.088H264.496V438.431H311.919V434.088Z" fill="#401A49"/>
<path d="M493.524 242.984C496.404 225.297 484.399 208.624 466.711 205.744C449.023 202.864 432.349 214.868 429.47 232.555C426.59 250.243 438.594 266.916 456.282 269.796C473.97 272.676 490.644 260.672 493.524 242.984Z" fill="#FFA766"/>
<path d="M465.545 273.508C447.574 273.508 432.954 258.888 432.954 240.916C432.954 222.945 447.574 208.323 465.545 208.323C483.517 208.323 498.137 222.944 498.137 240.916C498.136 258.888 483.516 273.508 465.545 273.508ZM465.545 208.909C447.897 208.909 433.539 223.267 433.539 240.916C433.539 258.564 447.897 272.922 465.545 272.922C483.193 272.922 497.551 258.564 497.551 240.916C497.551 223.267 483.193 208.909 465.545 208.909Z" fill="white"/>
<path d="M497.843 241.209H433.445C433.284 241.209 433.152 241.077 433.152 240.916C433.152 240.755 433.284 240.623 433.445 240.623H497.843C498.004 240.623 498.136 240.755 498.136 240.916C498.136 241.077 498.005 241.209 497.843 241.209Z" fill="white"/>
<path d="M465.993 273.358C465.832 273.358 465.701 273.228 465.7 273.066L465.401 208.767C465.4 208.606 465.53 208.474 465.693 208.473H465.694C465.855 208.473 465.986 208.603 465.987 208.765L466.286 273.064C466.287 273.225 466.157 273.357 465.994 273.358H465.993Z" fill="white"/>
<path d="M461.996 273.333C461.957 273.333 461.918 273.325 461.882 273.306C457.271 270.973 453.273 265.899 450.913 259.388C448.928 253.917 447.985 247.326 448.106 239.799C448.218 232.791 449.24 226.704 451.141 221.704C453.453 215.627 458.668 210.751 462.812 208.616C462.934 208.555 463.088 208.601 463.153 208.726C463.217 208.85 463.168 209.003 463.043 209.067C458.243 211.54 453.544 216.811 451.615 221.885C449.735 226.829 448.724 232.859 448.612 239.809C448.492 247.273 449.427 253.803 451.389 259.217C453.705 265.607 457.613 270.578 462.111 272.856C462.236 272.919 462.286 273.071 462.222 273.196C462.177 273.282 462.089 273.333 461.996 273.333Z" fill="white"/>
<path d="M469.656 272.884C469.579 272.884 469.503 272.852 469.45 272.788C469.355 272.674 469.371 272.505 469.484 272.41C483.428 260.816 482.972 244.527 481.416 233.282C480.63 227.618 479.14 222.716 476.985 218.711C474.502 214.097 471.034 210.6 467.223 208.866C467.088 208.805 467.029 208.646 467.09 208.511C467.151 208.375 467.314 208.313 467.445 208.378C471.363 210.16 474.919 213.739 477.456 218.457C479.642 222.518 481.153 227.481 481.947 233.208C483.521 244.578 483.976 261.056 469.827 272.821C469.777 272.865 469.716 272.884 469.656 272.884Z" fill="white"/>
<path d="M433.246 240.909C433.216 240.909 433.186 240.904 433.157 240.895C433.003 240.845 432.918 240.68 432.967 240.527C435.633 232.238 441.536 225.574 448.369 223.133C450.616 222.331 453.177 221.788 456.43 221.424C464.611 220.503 472.232 221.151 479.084 223.34C485.55 225.406 493.789 230.895 497.517 240.108C497.578 240.258 497.505 240.428 497.356 240.489C497.208 240.549 497.034 240.479 496.975 240.328C493.323 231.304 485.247 225.923 478.906 223.898C472.132 221.733 464.591 221.099 456.497 222.005C453.29 222.365 450.77 222.898 448.566 223.684C441.901 226.066 436.137 232.587 433.525 240.705C433.485 240.831 433.37 240.909 433.246 240.909Z" fill="white"/>
<path d="M461.757 259.844C459.123 259.844 456.587 259.56 454.158 258.992C446.333 257.162 436.716 251.497 433.193 241.084C433.14 240.931 433.223 240.765 433.376 240.713C433.529 240.656 433.696 240.744 433.747 240.896C437.195 251.081 446.62 256.627 454.291 258.421C462.024 260.23 470.869 259.102 480.581 255.068C488.192 251.906 494.336 246.806 497.436 241.074C497.513 240.933 497.689 240.878 497.833 240.956C497.975 241.033 498.027 241.21 497.951 241.353C494.789 247.201 488.539 252.397 480.805 255.608C474.017 258.429 467.64 259.844 461.757 259.844Z" fill="white"/>
<path d="M456.057 152.015C450.511 144.13 441.324 138.994 430.979 138.994C414.027 138.994 400.21 152.787 400.21 169.738C400.21 179.817 405.081 188.764 412.604 194.382C417.74 198.216 424.106 200.483 430.979 200.483C447.931 200.483 461.724 186.69 461.724 169.738C461.724 163.131 459.626 157.006 456.057 152.015ZM430.979 199.928C424.179 199.928 417.861 197.661 412.797 193.851C405.491 188.329 400.764 179.576 400.764 169.737C400.764 153.075 414.316 139.523 430.978 139.523C441.081 139.523 450.052 144.515 455.55 152.183C459.07 157.126 461.168 163.179 461.168 169.738C461.169 186.401 447.617 199.928 430.979 199.928Z" fill="white"/>
<path d="M453.881 301.803C451.387 301.803 449.366 299.781 449.366 297.288C449.366 294.794 451.387 292.773 453.881 292.773C456.374 292.773 458.396 294.794 458.396 297.288C458.396 299.782 456.374 301.803 453.881 301.803Z" fill="#FFF5EE"/>
<path d="M453.881 316.579C451.387 316.579 449.366 314.558 449.366 312.064C449.366 309.571 451.387 307.549 453.881 307.549C456.374 307.549 458.396 309.57 458.396 312.064C458.396 314.558 456.374 316.579 453.881 316.579Z" fill="#FFF5EE"/>
<path d="M453.881 316.579C451.387 316.579 449.366 314.558 449.366 312.064C449.366 309.571 451.387 307.549 453.881 307.549C456.374 307.549 458.396 309.57 458.396 312.064C458.396 314.558 456.374 316.579 453.881 316.579Z" fill="#FFF5EE"/>
<path d="M453.881 331.355C451.387 331.355 449.366 329.334 449.366 326.84C449.366 324.347 451.387 322.325 453.881 322.325C456.374 322.325 458.396 324.347 458.396 326.84C458.396 329.334 456.374 331.355 453.881 331.355Z" fill="#FFF5EE"/>
<path d="M108.716 409.418C111.21 409.418 113.231 407.397 113.231 404.903C113.231 402.409 111.21 400.388 108.716 400.388C106.222 400.388 104.201 402.409 104.201 404.903C104.201 407.397 106.222 409.418 108.716 409.418Z" fill="#FFF5EE"/>
<path d="M123.492 409.418C125.986 409.418 128.007 407.397 128.007 404.903C128.007 402.409 125.986 400.388 123.492 400.388C120.998 400.388 118.977 402.409 118.977 404.903C118.977 407.397 120.998 409.418 123.492 409.418Z" fill="#FFF5EE"/>
<path d="M123.492 409.418C125.986 409.418 128.007 407.397 128.007 404.903C128.007 402.409 125.986 400.388 123.492 400.388C120.998 400.388 118.977 402.409 118.977 404.903C118.977 407.397 120.998 409.418 123.492 409.418Z" fill="#FFF5EE"/>
<path d="M142.783 404.903C142.783 407.397 140.762 409.418 138.268 409.418C135.775 409.418 133.753 407.397 133.753 404.903C133.753 402.41 135.774 400.388 138.268 400.388C140.761 400.388 142.783 402.409 142.783 404.903Z" fill="#FFF5EE"/>
<path d="M140.616 90.416C143.11 90.416 145.131 88.3946 145.131 85.901C145.131 83.4074 143.11 81.386 140.616 81.386C138.122 81.386 136.101 83.4074 136.101 85.901C136.101 88.3946 138.122 90.416 140.616 90.416Z" fill="#FFF5EE"/>
<path d="M155.392 90.416C157.886 90.416 159.907 88.3946 159.907 85.901C159.907 83.4074 157.886 81.386 155.392 81.386C152.898 81.386 150.877 83.4074 150.877 85.901C150.877 88.3946 152.898 90.416 155.392 90.416Z" fill="#FFF5EE"/>
<path d="M155.392 90.416C157.886 90.416 159.907 88.3946 159.907 85.901C159.907 83.4074 157.886 81.386 155.392 81.386C152.898 81.386 150.877 83.4074 150.877 85.901C150.877 88.3946 152.898 90.416 155.392 90.416Z" fill="#FFF5EE"/>
<path d="M170.168 90.416C172.662 90.416 174.683 88.3946 174.683 85.901C174.683 83.4074 172.662 81.386 170.168 81.386C167.674 81.386 165.653 83.4074 165.653 85.901C165.653 88.3946 167.674 90.416 170.168 90.416Z" fill="#FFF5EE"/>
</svg>
